<?xml version="1.0" standalone="no"?>
<!DOCTYPE svg PUBLIC "-//W3C//DTD SVG 1.1//EN" "http://www.w3.org/Graphics/SVG/1.1/DTD/svg11.dtd" >
<svg>
<metadata>
Created by FontForge 20120731 at Thu Jan 25 07:16:36 2018
 By www-data
Copyright \(c\) 2018 by Youssef Habchi. All rights reserved.
</metadata>
<defs>
<font id="Dulcelin" horiz-adv-x="593" >
  <font-face 
    font-family="Dulcelin"
    font-weight="400"
    font-stretch="normal"
    units-per-em="1200"
    panose-1="0 0 0 0 0 0 0 0 0 0"
    ascent="870"
    descent="-330"
    x-height="418"
    cap-height="867"
    bbox="-328.414 -600 1524.04 1120"
    underline-thickness="50"
    underline-position="-50"
    unicode-range="U+0020-2122"
  />
    <missing-glyph />
    <glyph glyph-name="space" unicode=" " horiz-adv-x="253" 
 />
    <glyph glyph-name="e" unicode="e" horiz-adv-x="397" 
d="M129 396c-23 -38 -45 -85 -58 -134c46 5 97 19 130 70c18 28 33 63 33 90c0 19 -10 42 -35 40c-23 -2 -51 -35 -70 -66zM71 223h-8c-7 -39 -8 -79 -2 -115c12 -73 66 -109 123 -91c54 17 158 95 200 257c5 19 12 27 18 27c7 -1 12 -11 9 -27c-16 -90 -66 -179 -130 -242
c-41 -41 -101 -86 -165 -83c-49 2 -90 32 -116 74c-20 32 -32 71 -32 142c4 86 29 164 89 238c33 41 92 88 152 88c35 0 70 -15 82 -49c4 -12 6 -25 6 -37c0 -23 -8 -44 -17 -61c-38 -68 -164 -121 -209 -121z" />
    <glyph glyph-name="r" unicode="r" horiz-adv-x="449" 
d="M341 397c2 -19 6 -117 41 -117c30 0 69 51 89 80c8 12 17 13 22 10s4 -12 -3 -24c-23 -38 -88 -120 -151 -121c-38 0 -60 24 -71 65c-15 58 -12 133 -24 133c-35 0 -107 -201 -137 -340c-6 -29 -18 -116 -61 -121c-32 -4 -45 41 -49 71c-11 83 -14 170 -18 300
c-1 39 -2 87 40 87c15 0 35 -7 38 -34c10 -86 1 -238 20 -238c12 21 94 321 183 340c8 2 15 2 21 2c45 -1 55 -48 60 -93z" />
    <glyph glyph-name="u" unicode="u" 
d="M87 379c-13 -57 -21 -128 -21 -189c0 -75 11 -136 41 -136c56 0 129 135 196 317c13 35 35 47 52 47c27 0 41 -17 46 -70c13 -137 37 -258 80 -258c35 0 84 104 103 167c3 11 9 15 14 15c6 0 11 -7 9 -19c-14 -73 -71 -233 -167 -233c-93 1 -109 198 -117 302
c-40 -101 -138 -345 -240 -345c-34 0 -80 25 -95 105c-4 24 -7 64 -6 110c1 67 10 144 28 195c8 23 28 32 45 31c20 -1 37 -16 32 -39z" />
    <glyph glyph-name="i" unicode="i" horiz-adv-x="258" 
d="M91 380c-20 -81 -44 -346 34 -339c53 5 110 168 126 244c3 13 9 16 14 15c6 -2 9 -10 7 -24c-14 -105 -74 -290 -167 -303c-163 -21 -119 337 -97 420c6 23 21 33 38 34c25 1 52 -20 45 -47zM72 627c-22 0 -50 20 -50 56c0 35 31 73 63 74c28 0 53 -15 53 -57
c0 -37 -34 -72 -66 -73z" />
    <glyph glyph-name="c" unicode="c" horiz-adv-x="418" 
d="M333 360c0 -35 -24 -78 -67 -74c-29 3 -40 19 -41 40c-1 39 31 42 36 63c9 41 -16 67 -49 67c-71 0 -158 -148 -159 -295c0 -71 25 -143 91 -143c58 0 123 44 175 108c34 46 66 103 86 141c3 6 10 9 15 7c6 -2 10 -7 7 -16c-47 -132 -187 -309 -316 -309
c-94 0 -148 84 -146 196c4 161 102 342 247 342c72 0 122 -58 121 -127z" />
    <glyph glyph-name="equal" unicode="=" horiz-adv-x="570" 
d="M126 291c-14 -3 -27 6 -29 18c-3 16 6 30 27 37c45 15 283 13 335 3c11 -2 16 -10 16 -18c0 -11 -10 -24 -29 -22c-51 5 -248 -3 -320 -18zM125 163c-15 -3 -34 3 -36 16c-2 11 2 32 21 39c44 16 288 7 340 -3c11 -2 17 -10 17 -19c0 -12 -9 -24 -24 -23
c-51 2 -246 5 -318 -10z" />
    <glyph glyph-name="g" unicode="g" horiz-adv-x="535" 
d="M324 63c2 78 -4 142 -10 207c-39 -129 -127 -268 -221 -269c-101 -2 -130 85 -125 172c7 143 107 319 263 319c39 0 105 -17 111 -88c6 1 11 2 17 2c22 -2 27 -36 35 -94c6 -46 12 -108 13 -182c45 40 83 81 123 147c8 13 16 16 21 13c6 -3 9 -14 3 -30
c-17 -46 -75 -117 -147 -179c-1 -53 -5 -111 -12 -173c-7 -61 -24 -224 -84 -343c-37 -73 -100 -139 -190 -139c-105 0 -191 92 -178 206c21 196 221 310 381 431zM315 -62l7 77c-138 -99 -314 -238 -323 -397c-5 -76 37 -142 102 -142c176 0 210 423 214 462zM296 312
c7 21 14 42 19 67c-2 4 -4 10 -7 16c-23 51 -56 58 -76 58c-93 -1 -169 -186 -175 -297c-3 -47 2 -103 55 -102c64 2 143 135 184 258z" />
    <glyph glyph-name="h" unicode="h" horiz-adv-x="580" 
d="M44 806c6 26 23 33 39 33c31 0 46 -16 38 -57c-35 -187 -53 -433 -53 -566c0 -57 0 -71 7 -128c8 21 114 355 215 355c57 0 68 -117 81 -175c17 -79 39 -182 75 -182c42 0 84 86 131 212c2 6 7 9 11 8c7 -1 11 -10 7 -25c-48 -192 -132 -274 -180 -274
c-84 0 -108 136 -129 240c-13 61 -16 123 -34 123c-32 0 -112 -204 -140 -314c-9 -36 -18 -93 -52 -93c-25 0 -51 16 -58 58c-13 75 -15 110 -14 199c1 145 16 405 56 586z" />
    <glyph glyph-name="k" unicode="k" horiz-adv-x="519" 
d="M-9 314c3 179 19 327 49 504c3 20 24 36 42 35c19 -1 39 -22 36 -44c-26 -186 -45 -323 -46 -500c0 -56 2 -109 10 -160c17 144 110 382 241 382c56 0 90 -55 78 -117c-15 -73 -86 -138 -145 -180c-13 -9 -17 -12 -17 -23c0 -36 85 -109 134 -109c38 0 75 51 96 94
c21 41 34 77 50 120c8 22 27 23 22 -4c-19 -97 -101 -293 -197 -293c-70 0 -134 78 -165 145c-4 9 -6 17 -6 24c1 19 15 35 39 55c53 46 101 113 101 171c0 27 -10 56 -33 56c-44 0 -106 -117 -140 -243c-23 -82 -32 -169 -24 -214c5 -10 6 -14 6 -17c2 -19 -13 -30 -31 -32
c-19 -2 -43 7 -54 28c-43 82 -48 228 -46 322z" />
    <glyph glyph-name="l" unicode="l" horiz-adv-x="353" 
d="M270 762c0 -172 -110 -343 -208 -489c1 -92 27 -233 104 -234c93 0 150 157 172 228c6 17 16 26 22 26s10 -11 5 -34c-21 -91 -94 -289 -222 -289c-128 1 -169 195 -169 339c0 122 20 257 56 373c19 62 73 184 162 184c59 -2 77 -49 78 -104zM86 558
c-14 -70 -25 -154 -27 -228c81 121 165 280 165 435c0 30 -8 55 -32 55c-53 0 -96 -210 -106 -262z" />
    <glyph glyph-name="d" unicode="d" horiz-adv-x="603" 
d="M455 811c-24 -110 -52 -246 -68 -390c-23 -200 -17 -406 48 -406c63 0 141 223 158 269c4 10 9 16 14 15c4 -1 7 -7 6 -20c-7 -57 -88 -317 -196 -333c-82 -12 -116 79 -123 207c-20 -75 -67 -181 -162 -186c-102 -6 -150 104 -152 198c-3 108 32 250 139 307
c20 11 46 20 79 20c45 -1 84 -23 109 -56c10 76 19 138 28 193c15 91 31 163 43 195c10 28 31 34 48 32c19 -3 35 -18 29 -45zM269 184c13 51 20 112 18 160c-5 18 -11 36 -20 57c-12 30 -31 58 -66 56c-99 -5 -138 -181 -135 -264c2 -58 18 -164 90 -159
c52 4 92 67 113 150z" />
    <glyph glyph-name="f" unicode="f" horiz-adv-x="334" 
d="M-36 330c-1 22 22 57 38 63c13 83 48 312 73 384c11 32 31 42 48 39c20 -4 37 -25 32 -51c-26 -125 -70 -373 -73 -421c33 -27 78 -57 146 -58c34 0 71 10 103 33c23 17 35 -4 12 -26c-32 -30 -79 -48 -130 -48c-32 0 -64 9 -93 20c92 -88 163 -295 169 -441
c5 -130 -29 -357 -160 -360c-168 -4 -162 391 -158 543c5 165 4 171 17 287c-14 10 -23 22 -24 36zM237 -127c-13 130 -75 309 -168 381c-20 -172 -21 -324 -3 -506c3 -27 27 -210 68 -211c56 -1 120 160 103 336z" />
    <glyph glyph-name="j" unicode="j" horiz-adv-x="238" 
d="M-3 404c4 20 25 32 45 33c23 1 46 -11 43 -42c-8 -79 -2 -173 4 -274c62 52 101 107 143 174c8 13 22 13 28 9c7 -4 9 -16 2 -31c-17 -36 -82 -127 -171 -197c5 -90 9 -185 1 -281c-12 -143 -74 -386 -265 -386c-96 -1 -151 68 -155 163c-10 186 163 351 333 484
c-9 135 -27 256 -8 348zM0 -223c11 81 11 160 8 235c-156 -125 -281 -270 -281 -437c0 -55 31 -121 91 -122c125 0 168 221 182 324zM-22 656c0 40 33 81 67 81c30 0 53 -19 53 -58s-34 -75 -70 -75c-21 0 -50 19 -50 52z" />
    <glyph glyph-name="n" unicode="n" horiz-adv-x="570" 
d="M2 54c-15 117 -16 234 -14 357c0 23 19 42 43 42c22 0 40 -18 39 -38c-3 -80 -1 -328 18 -328c10 23 55 153 98 251c15 34 55 102 93 102c47 0 64 -56 75 -99c27 -103 48 -255 96 -255c38 0 84 129 107 188c5 12 11 22 21 18c6 -3 5 -15 1 -33
c-13 -54 -69 -245 -165 -245c-122 2 -134 358 -163 358c-21 0 -78 -162 -114 -271c-24 -73 -35 -123 -62 -133s-47 0 -58 26c-8 19 -13 45 -15 60z" />
    <glyph glyph-name="p" unicode="p" horiz-adv-x="551" 
d="M74 -461c3 -17 -16 -40 -36 -42c-17 -2 -36 6 -44 29c-17 51 -22 240 -19 430c3 182 5 328 35 512c4 23 28 34 45 33c20 -2 36 -20 37 -34c1 -9 -38 -289 -37 -399c31 143 102 284 132 330c16 25 53 76 93 76c36 0 60 -32 64 -88c9 -131 24 -302 69 -302
c59 0 118 158 139 220c5 16 12 23 18 21c5 -1 10 -10 6 -26c-18 -72 -84 -277 -194 -277c-90 0 -114 164 -124 300c-2 28 -1 73 -5 84c-45 -4 -196 -333 -200 -554c-2 -126 9 -233 21 -313z" />
    <glyph glyph-name="q" unicode="q" horiz-adv-x="518" 
d="M438 -399c3 -100 -32 -180 -100 -174c-62 5 -84 125 -89 249c-4 84 0 170 4 232c-11 10 -19 27 -19 42c0 18 10 32 25 43c4 46 8 95 13 144c-38 -89 -97 -174 -179 -174c-78 0 -133 66 -130 173c4 143 90 341 240 341c54 0 97 -31 118 -78c9 10 22 15 36 14
c22 -2 44 -20 39 -55c-18 -120 -34 -216 -47 -305c67 64 123 161 158 221c5 10 14 13 19 11s8 -11 2 -26c-26 -64 -107 -187 -187 -268c-4 -31 -8 -62 -11 -93c42 -58 103 -150 108 -297zM114 20c69 0 125 121 157 209c10 29 19 59 27 89c-4 85 -46 120 -81 120
c-114 0 -161 -205 -161 -312c0 -53 14 -106 58 -106zM398 -393c3 76 -20 167 -72 240c-2 -62 1 -202 10 -286c2 -16 6 -64 30 -64c14 0 29 26 32 110z" />
    <glyph glyph-name="t" unicode="t" horiz-adv-x="300" 
d="M-20 526c-30 -3 -89 1 -98 40c-4 15 8 43 31 47c21 3 35 -16 47 -21c21 -10 37 -13 53 -13h4c13 80 30 155 48 214c8 27 30 38 48 36c21 -3 38 -22 32 -53c-11 -52 -25 -117 -39 -188c48 8 99 20 149 20c17 0 83 -7 83 -31c0 -8 -6 -15 -15 -15c-6 0 -12 3 -18 6
c-11 5 -25 9 -51 9c-52 0 -102 -13 -155 -26c-19 -106 -35 -221 -31 -322c5 -123 24 -198 68 -198c66 0 130 169 163 269c3 10 9 16 13 16c5 0 9 -6 7 -21c-21 -127 -106 -334 -213 -334c-93 0 -115 128 -118 233c-2 104 6 224 22 336c-11 -2 -20 -3 -30 -4z" />
    <glyph glyph-name="y" unicode="y" 
d="M89 373c-9 -65 -30 -127 -22 -198c6 -48 19 -73 54 -73c59 0 175 230 214 326c11 27 31 34 46 34c25 0 46 -16 53 -56c13 -76 25 -167 29 -257c51 40 103 88 139 150c8 13 17 21 26 19c8 -2 11 -17 3 -32c-27 -51 -85 -113 -167 -181c1 -17 0 -34 0 -51
c-3 -142 5 -620 -271 -620c-109 -3 -168 112 -163 217c9 176 167 291 348 435c1 105 -12 212 -31 288c-28 -62 -141 -337 -260 -344c-66 -4 -100 71 -102 169c-1 60 10 134 25 187c7 23 23 40 53 34c21 -5 29 -22 26 -47zM190 -519c168 0 183 441 187 557
c-160 -117 -293 -265 -293 -408c0 -75 41 -149 106 -149z" />
    <glyph glyph-name="z" unicode="z" horiz-adv-x="482" 
d="M-26 -415c1 151 119 283 244 405l-10 9c-58 50 -94 30 -111 66c-8 18 0 37 18 40s43 16 51 25c70 71 107 155 120 229c10 57 -17 117 -80 108c-79 -12 -165 -78 -165 -163c0 -16 31 -28 36 -41c14 -37 -19 -71 -48 -78c-26 -6 -57 12 -62 40c-20 108 109 265 257 287
c79 12 167 -39 159 -138c-7 -85 -75 -184 -171 -267c-12 -10 -25 -25 -21 -35c3 -8 19 -21 23 -24l35 -28c88 84 160 148 219 256c7 14 16 19 22 18c7 -2 10 -12 2 -31c-44 -102 -121 -167 -219 -264c62 -60 99 -128 105 -215c11 -153 -74 -363 -241 -363
c-99 0 -163 71 -163 164zM291 -227c-3 69 -9 136 -51 192c-109 -111 -208 -236 -212 -381c-2 -71 39 -113 84 -113c123 0 183 196 179 302z" />
    <glyph glyph-name="o" unicode="o" horiz-adv-x="463" 
d="M117 425c4 1 13 3 21 3c20 38 66 64 107 64c92 0 131 -100 133 -184c0 -11 0 -23 -1 -35c48 12 87 42 109 88c7 15 14 18 20 18s10 -10 8 -19c-13 -64 -72 -107 -142 -122c-23 -130 -114 -268 -239 -275c-120 -6 -175 105 -169 208c7 118 82 232 153 254zM328 232
c-114 -5 -195 73 -199 152c-44 -44 -83 -131 -78 -235c3 -69 41 -130 100 -128c104 3 159 114 177 211zM213 378c0 -69 55 -109 120 -109c1 11 2 22 2 33c0 80 -32 148 -70 148c-32 0 -52 -45 -52 -72z" />
    <glyph glyph-name="s" unicode="s" horiz-adv-x="416" 
d="M322 393c1 -22 -5 -50 -21 -68c-12 -13 -30 -19 -47 -19c-22 0 -50 13 -50 42c0 20 14 42 39 56c5 3 7 8 7 14c0 23 -28 50 -61 50c-60 0 -118 -57 -120 -114c0 -73 74 -132 137 -185c89 44 182 100 244 182c9 12 18 13 24 10s8 -12 2 -22c-46 -75 -154 -145 -243 -192
c25 -25 60 -46 61 -88c0 -79 -100 -111 -169 -111c-70 0 -107 29 -107 67c0 50 61 87 105 112c-62 49 -137 110 -137 172c0 104 101 200 211 200c61 0 122 -34 125 -106zM132 -19c27 0 78 16 78 53c-1 28 -39 55 -58 70c-21 -13 -79 -47 -79 -82c0 -24 16 -41 59 -41z" />
    <glyph glyph-name="b" unicode="b" horiz-adv-x="498" 
d="M79 259c0 -66 19 -256 121 -249c70 5 128 107 122 196c-2 33 -14 75 -32 97c-22 26 -65 21 -65 66c0 31 31 55 61 56c16 1 32 -5 43 -20c9 -12 16 -32 21 -54c27 -24 63 -41 98 -41c23 0 46 7 66 23c8 7 15 6 19 3c4 -4 5 -11 1 -17c-22 -32 -58 -43 -95 -43
c-26 0 -53 5 -77 12l4 -35c15 -134 -64 -307 -190 -307c-158 0 -189 204 -185 347c5 181 33 339 84 519c8 28 36 36 54 31c22 -6 39 -27 32 -56c-44 -173 -82 -348 -82 -528z" />
    <glyph glyph-name="S" unicode="S" horiz-adv-x="762" 
d="M757 296c6 12 13 23 21 21c7 -2 13 -19 -3 -47c-34 -61 -138 -103 -243 -140c50 -39 84 -80 84 -126c0 -165 -230 -249 -371 -249c-109 -1 -171 48 -171 120c0 96 147 186 319 245c-152 98 -382 198 -382 388c0 203 234 359 444 359c142 0 236 -88 236 -193
c0 -58 -38 -123 -106 -128c-33 -2 -68 19 -68 56c0 22 10 51 31 63c24 13 51 8 50 51c-2 86 -69 117 -165 117c-128 0 -333 -125 -333 -292c0 -179 249 -281 401 -388c113 36 219 76 256 143zM523 -32c0 48 -39 89 -95 129c-132 -45 -288 -120 -288 -219
c0 -58 51 -87 122 -87c88 0 261 72 261 177z" />
    <glyph glyph-name="A" unicode="A" horiz-adv-x="1005" 
d="M60 426c22 -13 19 -37 52 -50c32 -13 93 -14 164 -10c53 112 106 238 142 315c37 80 99 196 163 192c30 -2 58 -24 71 -56c33 -80 50 -233 62 -364l6 -64c112 -11 179 -43 179 -74c0 -8 -9 -34 -41 -35c-31 0 -29 50 -56 63c-21 10 -48 15 -80 18
c15 -144 29 -257 36 -299c15 -99 39 -145 74 -145c58 0 142 245 158 336c3 18 9 29 19 27c12 -2 8 -26 7 -33c-17 -131 -124 -415 -222 -415c-76 0 -98 82 -117 155c-18 69 -30 228 -43 375c-109 -4 -216 -18 -332 -35c-19 -43 -39 -86 -58 -126
c-68 -142 -146 -255 -217 -281c-55 -20 -98 2 -105 51c-7 47 36 98 81 77c60 -28 91 -8 185 147c20 32 43 76 66 125c-75 -10 -148 -17 -177 -16c-47 2 -95 15 -95 66c0 27 24 63 55 63c7 0 15 -2 23 -7zM460 682c-42 -82 -89 -197 -140 -313c89 7 186 18 261 22
c17 1 34 1 50 1l-9 94c-14 148 -33 317 -73 317c-30 0 -75 -92 -89 -121z" />
    <glyph glyph-name="B" unicode="B" horiz-adv-x="954" 
d="M145 -55c7 -26 3 -58 -24 -69c-22 -9 -53 3 -63 19c-29 45 -38 128 -38 213c0 127 33 250 33 356c0 71 -30 120 -52 140c-21 19 -38 10 -57 28c-7 6 -21 26 -17 54c6 40 54 61 91 36c43 -29 76 -117 76 -200c0 -21 0 -45 -1 -71c33 178 143 401 317 421
c113 13 210 -67 207 -192c-3 -130 -102 -238 -216 -320c52 19 111 33 177 34c107 1 221 -51 252 -157c67 35 110 64 137 93c18 19 30 29 37 27c12 -1 11 -26 -18 -55c-40 -40 -78 -59 -149 -98c1 -14 2 -28 1 -43c-13 -185 -244 -396 -426 -405c-73 -3 -140 29 -135 110
c6 89 97 152 208 210c79 41 169 78 251 115c-4 106 -86 172 -187 169c-68 -2 -142 -25 -209 -55c-18 -15 -44 -38 -71 -38c-19 -1 -40 16 -40 40c0 10 5 20 13 26c23 17 78 22 93 24c47 23 99 73 134 142c30 57 47 131 51 180c6 80 -40 156 -111 149
c-151 -16 -234 -202 -273 -376c-18 -76 -28 -159 -28 -243c0 -106 23 -213 37 -264zM402 -198c159 7 315 195 333 351c-81 -37 -166 -73 -236 -110c-99 -52 -169 -111 -175 -184c-3 -41 40 -59 78 -57z" />
    <glyph glyph-name="C" unicode="C" horiz-adv-x="826" 
d="M659 505c-15 -10 -32 -16 -48 -16c-25 0 -48 12 -55 37c-8 28 5 63 32 78c31 17 74 36 68 102c-5 69 -81 127 -171 127c-237 0 -382 -323 -382 -553c0 -171 60 -382 273 -382c199 0 384 232 451 414c4 12 13 23 18 21c9 -4 5 -32 2 -41c-59 -194 -271 -462 -501 -462
c-218 0 -344 202 -344 419c0 266 185 618 487 618c131 0 239 -91 239 -225c0 -58 -23 -105 -69 -137z" />
    <glyph glyph-name="D" unicode="D" horiz-adv-x="1000" 
d="M1003 326c6 6 15 5 19 0c4 -6 5 -16 -3 -27c-25 -35 -90 -75 -177 -104c-90 -255 -330 -388 -487 -388c-67 0 -142 29 -142 102c0 45 21 98 147 169c104 60 255 92 387 125c19 52 30 106 34 162c16 256 -113 463 -267 463c-191 0 -317 -209 -359 -380
c-31 -126 -37 -253 -26 -358c6 -60 23 -107 33 -157c2 -8 3 -17 3 -25c0 -18 -19 -44 -48 -44c-25 0 -39 15 -51 42c-33 74 -38 215 -14 389c19 137 56 257 56 332c0 37 -19 69 -45 95c-28 28 -50 23 -74 39c-23 15 -31 27 -33 47c-4 31 20 56 52 56c15 0 30 -5 42 -12
c81 -52 110 -194 93 -320c42 169 196 336 388 338c204 2 364 -216 346 -502c-3 -47 -11 -91 -22 -133c71 25 114 55 148 91zM357 -158c129 0 294 135 374 322c-107 -28 -225 -59 -314 -100c-102 -46 -153 -102 -153 -149c0 -52 45 -73 93 -73z" />
    <glyph glyph-name="E" unicode="E" horiz-adv-x="771" 
d="M535 286c0 -27 -27 -43 -54 -43c-25 0 -56 11 -69 13c-133 -3 -319 -133 -319 -284c0 -77 65 -126 152 -126c220 0 440 226 521 428c7 18 18 22 23 21c7 -1 9 -18 5 -29c-81 -229 -325 -484 -591 -484c-136 0 -215 73 -215 169c0 164 218 294 363 330
c-124 0 -331 75 -331 233c3 210 245 354 451 355h18c112 -4 228 -60 228 -195c0 -52 -34 -144 -104 -144c-37 0 -62 22 -62 61c0 14 6 29 17 40c27 28 72 38 76 72v9c-1 83 -70 123 -172 123c-157 0 -353 -158 -353 -331c2 -81 56 -140 128 -172c46 -21 111 -30 160 -30
c16 5 70 23 95 22c21 -1 33 -13 33 -38z" />
    <glyph glyph-name="F" unicode="F" horiz-adv-x="867" 
d="M42 347c33 -1 48 -34 73 -51c19 -13 53 -19 85 -18c17 0 37 2 57 4c-3 144 20 305 112 436c70 101 184 170 317 170c132 1 226 -82 233 -191c4 -61 -27 -139 -85 -142c-37 -3 -72 23 -71 60c0 18 8 35 23 47c23 19 55 29 55 59c0 71 -67 133 -154 133
c-167 0 -270 -176 -311 -329c-20 -74 -24 -155 -23 -230c71 11 145 24 207 24c138 0 225 -40 226 -83c0 -22 -17 -42 -42 -43c-31 0 -34 43 -56 63c-25 22 -72 33 -125 33c-61 0 -135 -15 -209 -31c6 -82 17 -143 30 -205c17 -79 38 -159 51 -189c13 -31 -19 -62 -49 -64
c-13 -1 -26 3 -35 16c-47 68 -85 312 -92 420c-55 -11 -107 -21 -149 -21c-46 0 -127 12 -126 75c0 28 27 58 58 57z" />
    <glyph glyph-name="G" unicode="G" horiz-adv-x="956" 
d="M772 324c5 -55 11 -129 11 -212c65 41 120 77 154 124c12 17 20 24 29 21c8 -3 13 -19 -3 -43c-35 -50 -102 -97 -180 -148c-1 -34 -2 -70 -5 -106c-25 -314 -121 -558 -311 -560h-9c-99 3 -168 82 -168 174c0 211 234 366 403 480c1 86 -6 158 -12 206
c-52 -144 -242 -322 -412 -324h-18c-181 11 -250 138 -250 298c0 279 242 626 532 623c146 -1 248 -121 230 -248c-5 -37 -34 -89 -84 -99c-54 -11 -78 38 -69 78c9 41 65 47 69 87c8 86 -56 145 -149 146c-69 1 -136 -26 -197 -80c-124 -109 -233 -310 -233 -524
c0 -95 45 -215 177 -223h13c129 2 316 139 383 326c-1 28 28 52 55 53c21 1 40 -12 44 -49zM692 8c-17 -10 -33 -21 -49 -33c-111 -77 -300 -229 -300 -400c0 -59 38 -131 107 -131c86 1 152 114 193 258c23 81 38 172 49 306z" />
    <glyph glyph-name="I" unicode="I" horiz-adv-x="901" 
d="M478 689c5 21 21 37 44 35c24 -2 44 -22 38 -56c-18 -104 -46 -245 -55 -348c-10 -113 -21 -291 -15 -346c66 -12 132 -21 201 -27c62 -4 86 13 106 32c15 14 25 18 35 18c18 0 37 -19 37 -36c0 -40 -55 -51 -120 -51c-50 0 -106 7 -261 31c-4 -20 -14 -30 -41 -30
c-32 0 -43 17 -48 45c-92 15 -173 24 -251 18c-87 -7 -85 -34 -107 -58c-17 -19 -37 -24 -50 -24c-33 0 -65 29 -63 65c3 65 85 72 137 72c53 0 122 -7 207 -18c38 -5 81 -12 125 -20c0 135 12 229 25 362c10 103 26 220 56 336zM246 843c22 -24 20 -51 107 -58
c18 -1 37 -2 55 -2c114 1 235 29 392 53c45 7 106 14 157 13c58 -1 104 -14 104 -51c0 -19 -23 -34 -42 -34c-10 0 -21 6 -28 16c-13 19 -35 32 -77 33c-40 0 -80 -5 -122 -11c-109 -17 -222 -42 -315 -54c-81 -10 -148 -17 -200 -18c-57 -1 -96 7 -119 25
c-13 11 -25 25 -25 47c0 33 29 65 64 65c13 0 32 -6 49 -24z" />
    <glyph glyph-name="quotesingle" unicode="'" horiz-adv-x="258" 
d="M91 579c37 43 41 86 41 120c0 37 -24 41 -24 65c0 20 15 40 43 40c38 0 58 -35 58 -75c0 -85 -88 -185 -124 -185c-5 0 -9 3 -9 7c0 5 3 15 15 28z" />
    <glyph glyph-name="J" unicode="J" horiz-adv-x="826" 
d="M610 495c10 136 -8 334 -180 334c-173 0 -379 -239 -322 -330c21 -35 54 -30 60 -71c6 -40 -31 -79 -64 -79c-47 0 -71 35 -80 78c-39 196 210 442 442 442c226 0 235 -231 233 -356c-2 -85 -19 -210 -52 -341c83 34 152 74 181 128c5 10 10 14 14 14c8 0 9 -19 -8 -49
c-35 -60 -111 -101 -199 -136c-79 -278 -218 -578 -458 -578c-119 0 -186 77 -181 171c9 165 199 277 344 338c67 28 131 48 199 72c39 131 64 262 71 363zM156 -411c165 0 289 255 371 501c-97 -33 -191 -64 -265 -107c-92 -54 -203 -146 -209 -255
c-4 -63 24 -139 103 -139z" />
    <glyph glyph-name="K" unicode="K" horiz-adv-x="935" 
d="M-57 -146c-25 5 -48 22 -52 46c-6 31 14 62 39 72c44 19 125 -14 160 76c40 111 76 287 89 451c14 180 0 199 -4 233c-2 31 24 48 50 48c22 0 44 -13 49 -43c14 -80 -7 -208 -19 -292c-34 -248 -101 -373 -133 -442c-29 -65 -105 -166 -179 -149zM535 694
c59 115 181 226 346 226c62 -1 112 -39 110 -80c-2 -27 -25 -45 -45 -45c-14 0 -41 4 -46 35c-5 29 -10 57 -50 58c-66 2 -166 -100 -240 -237c-45 -83 -95 -160 -136 -224c-34 -53 -65 -97 -87 -123c117 20 117 -95 169 -243c49 -142 88 -196 135 -195
c108 2 205 302 238 422c4 15 13 17 18 14c6 -4 9 -17 5 -33c-15 -61 -48 -189 -105 -300c-49 -96 -113 -172 -204 -172c-84 -1 -114 56 -145 136c-41 106 -75 342 -131 338c-37 -28 -67 -39 -87 -39c-11 0 -25 5 -25 20c0 11 6 22 17 29c16 10 46 18 65 20
c24 23 55 72 88 148c28 63 75 177 110 245z" />
    <glyph glyph-name="L" unicode="L" horiz-adv-x="1016" 
d="M913 707c7 -55 -18 -144 -89 -144c-27 0 -52 15 -55 49c-2 27 8 48 29 67c18 16 45 49 39 82c-10 52 -58 80 -103 80c-144 0 -212 -317 -271 -525c-23 -84 -50 -155 -79 -215c72 -38 116 -69 183 -99c42 -19 100 -47 159 -47c42 0 91 17 121 38c72 48 129 168 164 256
c5 13 14 21 20 19c5 -1 9 -7 5 -23c-20 -85 -140 -354 -315 -377c-108 -14 -235 81 -375 166c-72 -113 -161 -168 -270 -168c-73 0 -179 47 -179 137c0 112 102 183 228 183c62 0 126 -21 189 -50c105 236 117 740 412 740c91 0 174 -55 187 -169zM66 -99
c100 0 170 79 217 169c-54 29 -120 58 -193 58c-77 -2 -156 -48 -156 -117c0 -68 65 -110 132 -110z" />
    <glyph glyph-name="M" unicode="M" horiz-adv-x="1235" 
d="M62 657c-31 20 -79 16 -79 67c0 34 33 54 67 54c32 -1 58 -23 70 -47c12 -23 17 -56 17 -98c0 -168 -35 -336 -29 -527c1 -21 6 -47 15 -47c13 0 50 133 96 270c77 230 187 524 284 524c57 0 72 -45 79 -115c9 -96 6 -231 12 -325c2 -27 18 -220 48 -220
c26 0 120 266 163 355c47 99 86 151 130 151c45 0 59 -44 54 -149c-3 -67 -2 -120 -2 -195c0 -85 2 -334 84 -334c72 0 138 218 159 275c7 18 10 20 15 20s13 -3 8 -24c-35 -137 -108 -346 -223 -346c-131 0 -133 311 -134 410c-1 110 2 193 7 266
c-36 0 -134 -248 -184 -387c-35 -98 -58 -145 -102 -145c-61 0 -82 82 -91 126c-27 127 -32 262 -32 425c0 80 0 142 -16 142c-63 0 -214 -430 -281 -675c-43 -160 -47 -249 -103 -249c-76 0 -77 141 -77 199c0 118 29 244 51 374c9 55 21 118 21 173c0 21 -11 42 -27 52z
" />
    <glyph glyph-name="N" unicode="N" horiz-adv-x="939" 
d="M126 -6c-3 -25 -12 -60 -49 -60c-70 1 -59 114 -57 151c3 81 26 188 50 289c16 68 41 137 41 214c0 38 -6 70 -19 86c-17 22 -48 24 -73 27c-31 4 -48 24 -48 49c0 37 32 66 70 66c91 0 113 -109 113 -186c0 -32 -1 -70 -8 -131c-9 -85 -17 -171 -27 -287
c47 123 106 250 166 356c57 100 176 290 305 290c146 0 118 -244 105 -512c-10 -207 -11 -399 64 -399c67 0 156 278 177 346c6 18 12 19 17 18c7 -1 9 -14 6 -27c-12 -63 -105 -413 -243 -413c-134 0 -126 241 -113 477c13 243 38 454 -46 454c-55 0 -141 -88 -230 -242
c-42 -73 -100 -190 -146 -333c-29 -91 -47 -169 -55 -233z" />
    <glyph glyph-name="O" unicode="O" horiz-adv-x="889" 
d="M113 615c60 89 172 182 252 185c46 43 110 69 176 69c140 0 256 -132 287 -315c52 38 90 88 91 147c0 34 -18 59 -18 81c0 24 14 48 47 48s48 -28 48 -61c0 -9 -1 -18 -3 -26c-23 -89 -82 -167 -161 -222c3 -21 4 -43 4 -65c0 -333 -208 -609 -495 -609
c-201 0 -338 165 -338 411c0 132 44 260 110 357zM571 469c61 0 147 21 217 60c-19 156 -104 294 -237 294c-87 0 -159 -84 -159 -176c0 -82 61 -178 179 -178zM556 434c-127 0 -259 63 -259 212c0 36 9 69 25 99c-138 -83 -225 -289 -225 -468c0 -165 88 -369 284 -369
c224 0 412 243 412 552c0 12 0 24 -1 36c-70 -39 -151 -62 -236 -62z" />
    <glyph glyph-name="P" unicode="P" horiz-adv-x="917" 
d="M393 -129c13 -31 -19 -62 -48 -64c-12 -1 -24 4 -33 16c-35 51 -70 234 -83 343c-77 22 -152 61 -205 120c-27 29 -50 82 -50 115c0 42 33 66 66 66c25 0 48 -17 47 -56c-2 -39 -33 -103 49 -163c21 -16 52 -32 89 -44c-2 33 -4 68 -4 103c0 140 23 293 108 418
c66 97 158 160 285 169c180 14 309 -130 312 -306c5 -273 -228 -427 -507 -444c-28 -2 -59 -1 -92 3c16 -98 48 -234 66 -276zM630 861c-228 -9 -316 -330 -316 -536c0 -47 3 -94 7 -142c32 -3 66 -4 102 -1c251 18 409 205 405 416c-3 121 -67 268 -198 263z" />
    <glyph glyph-name="Q" unicode="Q" horiz-adv-x="976" 
d="M736 596c0 124 -73 258 -217 258c-183 0 -407 -221 -407 -457c0 -78 53 -150 89 -150c14 0 29 8 47 8c32 0 59 -20 59 -58c0 -30 -17 -69 -65 -69c-73 0 -185 71 -185 248c0 230 224 514 471 514c152 0 301 -94 301 -314c0 -236 -212 -457 -424 -582
c88 -40 177 -77 252 -77c165 0 232 147 297 290c5 10 12 31 24 26c8 -3 3 -27 -1 -38c-44 -128 -169 -364 -352 -364c-80 0 -196 63 -300 123c-100 -48 -194 -73 -259 -66c-52 5 -108 33 -113 91c-7 83 86 133 175 123c67 -8 149 -49 235 -89c196 131 373 377 373 583z
M68 -79c70 -7 148 13 224 52c-76 44 -144 82 -181 86c-56 6 -126 -18 -125 -78c0 -42 41 -56 82 -60z" />
    <glyph glyph-name="U" unicode="U" horiz-adv-x="1014" 
d="M75 824c77 -16 88 -164 83 -221c-14 -153 -61 -305 -61 -471c1 -109 38 -220 129 -220c154 0 254 297 330 506c61 166 97 330 165 330c48 -1 62 -67 63 -129c1 -78 1 -192 1 -277c0 -169 23 -302 72 -302c43 0 104 113 153 255c3 9 11 15 17 14s10 -8 6 -24
c-20 -83 -111 -326 -222 -326c-110 0 -117 230 -117 392c0 125 16 300 -2 300c-22 0 -54 -137 -139 -365c-56 -150 -182 -455 -370 -455c-113 0 -168 86 -170 235c0 205 111 416 101 532c-4 70 -32 83 -55 95c-17 8 -55 22 -61 47c-11 43 34 93 77 84z" />
    <glyph glyph-name="Y" unicode="Y" horiz-adv-x="927" 
d="M37 709c-21 12 -25 27 -25 45c1 33 34 57 67 58c65 1 86 -75 86 -134c0 -90 -45 -274 -45 -418c0 -84 25 -152 89 -150c188 4 379 507 429 644c18 50 40 62 62 62c90 2 87 -217 89 -459c0 -48 -1 -110 -7 -177c68 37 119 72 141 110c11 19 25 24 33 18
c7 -5 10 -18 -2 -35c-36 -51 -99 -93 -176 -135c-28 -272 -129 -627 -384 -631c-117 -2 -194 70 -194 192c0 150 142 261 285 334c71 37 140 69 202 99c7 63 11 120 13 160c9 228 -1 428 -29 428c-11 0 -50 -115 -85 -197c-93 -214 -236 -469 -400 -472
c-93 -2 -155 60 -155 178c0 119 86 324 86 399c0 63 -54 67 -80 81zM392 -449c175 5 256 307 289 538c-61 -30 -127 -62 -194 -98c-112 -62 -236 -155 -236 -295c0 -78 57 -147 141 -145z" />
    <glyph glyph-name="Z" unicode="Z" horiz-adv-x="818" 
d="M157 441c15 -8 27 -27 28 -44c3 -39 -25 -66 -64 -69c-50 -3 -88 41 -93 111c-15 206 294 430 513 430c128 0 250 -59 259 -190c14 -220 -202 -388 -372 -494c39 -22 90 -51 137 -91c95 60 184 119 236 184c10 12 20 29 31 23c8 -5 9 -12 -5 -35
c-42 -66 -137 -129 -238 -194c64 -61 116 -142 116 -251c0 -184 -216 -316 -383 -316c-89 0 -181 50 -181 156c0 87 79 204 256 326c41 28 85 56 129 84c-38 42 -86 73 -131 92c-30 -8 -91 -27 -119 -13c-33 16 -7 59 34 68c30 7 62 -9 82 -16c161 83 325 294 311 481
c-8 113 -105 147 -194 147c-180 0 -411 -197 -401 -345c2 -23 23 -29 49 -44zM607 -163c7 84 -19 154 -60 208c-49 -31 -97 -63 -140 -97c-111 -86 -213 -183 -206 -294c4 -65 54 -111 127 -111c152 0 266 132 279 294z" />
    <glyph glyph-name="at" unicode="@" horiz-adv-x="1052" 
d="M479 -382c-308 -28 -504 169 -504 499c0 372 282 707 601 723c225 12 417 -162 417 -424c0 -215 -119 -425 -243 -428c-10 0 -20 1 -30 3c-89 21 -127 117 -141 219c-28 -98 -85 -225 -179 -234c-102 -9 -141 88 -137 185c7 188 106 348 237 349c46 0 77 -20 99 -55
c2 -3 4 -7 5 -11c11 5 23 7 34 5c18 -3 41 -19 40 -39c-2 -40 -11 -111 -10 -186c1 -99 18 -196 86 -196c66 0 184 169 184 361c0 240 -150 409 -352 413c-283 5 -520 -340 -520 -680c0 -287 165 -483 416 -468c154 9 341 135 396 286c15 42 29 81 58 69
c58 -23 -24 -137 -84 -200c-100 -104 -231 -178 -373 -191zM419 41c113 21 140 273 152 341c2 36 -14 95 -60 95c-87 0 -150 -157 -159 -310c-4 -66 15 -135 67 -126z" />
    <glyph glyph-name="question" unicode="?" horiz-adv-x="688" 
d="M209 26c0 26 21 56 62 56c32 -1 59 -31 59 -57c0 -28 -24 -60 -70 -60c-28 0 -51 19 -51 61zM214 595c8 -41 -25 -67 -67 -67c-15 0 -79 13 -81 93c0 159 208 285 364 285c117 0 243 -43 243 -183c0 -133 -228 -214 -328 -316c-40 -40 -72 -75 -73 -104
c0 -33 40 -18 50 -52c12 -40 -37 -65 -65 -61c-25 4 -52 20 -52 71c0 178 364 269 364 487c0 89 -63 125 -142 125c-120 0 -283 -96 -283 -223c0 -14 19 -15 38 -22c14 -5 28 -13 32 -33z" />
    <glyph glyph-name="numbersign" unicode="#" horiz-adv-x="1038" 
d="M666 733c5 16 18 30 41 30c20 1 42 -17 36 -49c-14 -73 -26 -150 -33 -205c105 0 194 -4 237 -26c12 -6 19 -21 17 -29c-2 -12 -13 -17 -26 -16c-23 2 -35 22 -73 31c-40 10 -99 11 -159 11c-6 -56 -9 -116 -12 -197c9 0 17 1 26 2c74 2 235 0 243 -58
c2 -22 -14 -38 -29 -40c-15 -1 -33 8 -39 23c-17 45 -112 48 -202 42c-2 -76 5 -181 15 -236c5 -29 -13 -47 -36 -46c-30 1 -42 31 -49 58c-12 50 -15 132 -13 217c-66 -5 -133 -18 -202 -32c-3 -106 -1 -185 6 -235c5 -39 -30 -48 -51 -47c-22 2 -33 28 -38 57
c-7 43 -4 121 -2 209c-96 -20 -189 -37 -229 -31c-36 6 -46 25 -45 45c0 16 17 62 68 43c22 -9 50 -20 81 -20c27 0 77 5 129 11c4 67 12 138 22 210c-84 -7 -159 -11 -182 -6c-24 6 -35 31 -35 46c1 12 11 56 62 34c29 -13 67 -20 117 -24c15 -1 30 -2 45 -2
c11 69 21 131 37 193c5 17 19 39 48 36c31 -3 42 -29 37 -51c-15 -70 -27 -116 -38 -178c57 1 118 4 187 5c10 89 28 191 39 225zM623 477c-78 -5 -133 -10 -191 -15c-10 -69 -18 -137 -22 -207c65 7 134 17 201 22c2 85 6 146 12 200z" />
    <glyph glyph-name="slash" unicode="/" horiz-adv-x="413" 
d="M441 848c10 12 20 17 30 17c21 0 36 -24 15 -51c-104 -138 -179 -306 -246 -455c-53 -117 -135 -359 -155 -445c-5 -20 -21 -29 -36 -28s-29 13 -28 35c4 73 145 431 225 597c35 72 142 265 195 330z" />
    <glyph glyph-name="period" unicode="." horiz-adv-x="325" 
d="M217 47c0 -29 -20 -62 -53 -62c-27 0 -66 26 -66 64s30 56 54 56c32 0 65 -22 65 -58z" />
    <glyph glyph-name="hyphen" unicode="-" horiz-adv-x="502" 
d="M113 227c-16 -3 -35 0 -39 15c-4 16 7 32 19 35c60 14 231 14 284 8c27 -3 35 -17 29 -32c-4 -11 -12 -15 -41 -14c-51 2 -180 3 -252 -12z" />
    <glyph glyph-name="parenleft" unicode="(" horiz-adv-x="385" 
d="M383 904c-16 -13 -27 -14 -90 -88c-123 -144 -210 -397 -210 -626c0 -148 50 -381 225 -367c24 2 44 13 55 17s19 -2 5 -21s-40 -32 -75 -34c-192 -9 -293 235 -297 405c-6 224 76 441 219 616c48 59 110 102 155 120c23 9 26 -11 13 -22z" />
    <glyph glyph-name="parenright" unicode=")" horiz-adv-x="332" 
d="M-118 -232c208 82 311 344 311 570c0 124 -33 308 -106 428c-58 94 -126 141 -162 151c-11 3 -5 23 12 18c71 -23 158 -86 214 -173c70 -110 126 -238 130 -416c6 -238 -91 -420 -234 -537c-48 -40 -116 -66 -156 -65c-23 1 -22 19 -9 24z" />
    <glyph glyph-name="bracketright" unicode="]" horiz-adv-x="318" 
d="M-71 -186c-11 -2 -17 5 -17 12s7 15 20 19c66 21 175 7 201 30c20 17 13 52 14 83c4 174 10 410 19 556c5 91 14 183 19 274c2 27 5 69 -7 84c-6 8 -93 -2 -172 -3c-24 0 -46 1 -66 3c-10 1 -17 8 -17 15c0 8 8 18 19 17c102 -3 199 24 261 23c34 -1 58 -9 66 -36
c5 -17 7 -40 6 -65c-1 -49 -11 -106 -13 -137c-17 -244 -34 -479 -30 -736c1 -34 6 -94 -29 -116c-26 -17 -75 -20 -126 -21c-56 -1 -115 3 -148 -2z" />
    <glyph glyph-name="bracketleft" unicode="[" horiz-adv-x="443" 
d="M412 920c11 2 17 -5 17 -12s-7 -15 -20 -19c-66 -21 -175 -7 -201 -30c-20 -17 -13 -52 -14 -83c-4 -174 -10 -410 -19 -556c-5 -91 -14 -183 -19 -274c-2 -27 -5 -69 7 -84c6 -9 96 3 176 3c22 0 43 -1 62 -3c10 -1 17 -8 17 -15c0 -8 -8 -18 -19 -17
c-100 3 -195 -23 -257 -23c-61 0 -76 27 -76 90c0 52 11 114 13 148c17 244 34 479 30 736c-1 34 -6 94 29 116c27 17 77 21 129 21c56 0 113 -3 145 2z" />
    <glyph glyph-name="less" unicode="&#x3c;" horiz-adv-x="681" 
d="M583 473c17 14 36 -13 19 -31c-96 -106 -298 -170 -429 -248c99 -20 219 -85 293 -151c34 -30 85 -67 83 -113c-1 -18 -16 -24 -30 -22c-20 2 -42 19 -41 48c5 82 -257 156 -316 169c-62 14 -123 8 -123 39c0 23 21 30 39 39c126 58 350 141 505 270z" />
    <glyph glyph-name="greater" unicode="&#x3e;" horiz-adv-x="679" 
d="M161 448c140 -123 268 -201 383 -258c17 -8 40 -17 37 -40c-5 -36 -56 -27 -125 -42c-100 -24 -265 -64 -350 -128c-18 -14 -21 -27 -21 -49c0 -29 -31 -48 -53 -50c-16 -2 -40 7 -41 25c-2 35 67 86 109 116c92 68 248 135 349 158c-119 76 -240 150 -311 235
c-15 17 8 46 23 33z" />
    <glyph glyph-name="underscore" unicode="_" horiz-adv-x="704" 
d="M71 -12c-14 -3 -28 6 -28 20c0 15 13 21 26 25c42 12 149 18 257 18c100 0 201 -6 249 -12c12 -2 21 -10 21 -20c0 -12 -13 -26 -31 -23c-35 5 -137 9 -223 9c-110 0 -231 -9 -271 -17z" />
    <glyph glyph-name="trademark" unicode="&#x2122;" horiz-adv-x="631" 
d="M24 729c-5 4 -12 13 -12 20c0 13 9 25 17 26c3 0 7 -1 10 -5c15 -19 46 -24 81 -24c61 0 135 19 170 33c7 2 15 -5 15 -13c0 -5 -3 -11 -10 -15c-31 -19 -71 -27 -109 -33c-10 -44 -28 -151 -19 -175c8 0 60 112 112 174c17 21 35 32 48 32c14 0 23 -10 26 -31
c4 -27 2 -59 3 -94c0 -9 -3 -51 11 -51c8 0 17 26 40 73c11 23 27 59 60 59c19 0 32 -16 37 -44c7 -45 9 -105 17 -134c3 -12 10 -24 19 -24c21 0 52 63 59 80c3 7 7 10 11 10s7 -5 5 -12c-11 -37 -52 -131 -103 -131c-22 0 -35 17 -44 37c-19 43 -18 171 -23 171
c-9 0 -34 -64 -57 -115c-14 -32 -29 -43 -51 -43c-45 0 -41 119 -40 148c2 33 2 39 -1 39c-17 0 -95 -154 -108 -184c-17 -42 -30 -54 -44 -55c-34 0 -40 44 -40 75c0 74 9 120 24 188c-38 -3 -81 0 -104 18z" />
    <glyph glyph-name="registered" unicode="&#xae;" horiz-adv-x="524" 
d="M110 788c16 11 39 7 48 -5c8 -10 17 -38 -7 -53c-13 -8 -27 -8 -39 -19c-21 -19 -34 -55 -34 -96c0 -100 61 -151 158 -151c49 0 98 22 136 57c-25 10 -83 79 -136 81c-6 0 -10 -1 -14 -1c1 -23 4 -45 6 -61c1 -7 -9 -24 -23 -28s-33 5 -37 25c-6 28 -14 117 8 174
c15 39 85 91 131 68c28 -13 45 -44 44 -70c-2 -37 -44 -76 -61 -83c8 -7 88 -63 95 -93c39 42 65 96 65 152c-1 112 -86 157 -146 157c-26 0 -64 -7 -78 -36c-8 -16 -20 -26 -34 -26s-29 15 -26 31c9 41 83 58 126 58c87 0 197 -63 197 -188c0 -129 -127 -250 -265 -250
c-114 2 -202 87 -190 211c6 60 35 119 76 146zM223 695c-3 -21 -4 -44 -3 -67c39 18 71 55 71 102c0 12 -7 30 -21 31c-30 0 -43 -37 -47 -66z" />
    <glyph glyph-name="paragraph" unicode="&#xb6;" horiz-adv-x="672" 
d="M717 820c43 -8 29 -39 -5 -37c-23 1 -76 8 -128 11c-34 -189 -55 -712 -39 -835c3 -23 -14 -37 -33 -41c-17 -3 -37 11 -41 24c-17 62 -8 379 16 619c5 54 15 189 38 235c-44 0 -80 -6 -85 -23c-12 -57 -28 -142 -33 -207c-11 -125 -20 -229 -22 -296
c-2 -63 -6 -222 -3 -262c2 -21 -15 -34 -33 -35c-19 -1 -39 13 -45 32c-18 61 9 399 16 483c-39 -39 -98 -59 -154 -58c-88 1 -170 53 -163 158c10 141 165 219 292 240c59 9 124 13 187 13c91 0 177 -9 235 -21z" />
    <glyph glyph-name="section" unicode="&#xa7;" horiz-adv-x="714" 
d="M612 760c0 -50 -36 -94 -80 -93c-30 1 -53 28 -48 59c7 40 53 40 53 73c0 30 -42 67 -83 67c-74 0 -141 -64 -141 -131c0 -160 333 -202 333 -414c0 -75 -87 -159 -174 -178c44 -38 82 -89 82 -163c0 -103 -116 -186 -238 -191c-166 -7 -295 98 -293 229
c1 63 36 150 110 150c8 0 41 -10 50 -40c7 -24 -10 -46 -25 -58c-26 -22 -71 -17 -71 -90c0 -94 101 -155 213 -152c75 2 175 34 187 128c9 67 -56 118 -89 142c-87 62 -239 161 -239 257c0 109 88 171 163 191c-50 41 -89 86 -89 146c0 114 118 204 220 204
c79 0 159 -50 159 -136zM560 303c0 59 -44 104 -99 145c-35 26 -79 60 -112 63c-39 0 -117 -50 -117 -124c0 -32 17 -62 56 -104c41 -41 90 -71 139 -105c62 6 133 54 133 125z" />
    <glyph glyph-name="colon" unicode=":" horiz-adv-x="335" 
d="M158 163c29 0 50 -23 50 -54c0 -38 -30 -69 -59 -69c-26 0 -64 28 -64 61c0 35 39 62 73 62zM223 338c0 -34 -22 -66 -60 -66c-29 0 -56 8 -56 47c0 52 31 75 60 75c28 0 56 -21 56 -56z" />
    <glyph glyph-name="semicolon" unicode=";" horiz-adv-x="340" 
d="M179 377c29 0 50 -23 50 -54c0 -38 -30 -69 -59 -69c-26 0 -64 28 -64 61c0 35 39 62 73 62zM49 -124c39 37 59 71 59 100s-28 61 -28 83c0 21 12 34 41 34c42 0 65 -30 65 -74c0 -84 -105 -176 -146 -176c-6 0 -10 2 -10 6c0 5 5 14 19 27z" />
    <glyph glyph-name="comma" unicode="," horiz-adv-x="256" 
d="M0 -150c69 45 87 85 87 137c0 35 -17 43 -17 57c0 22 4 50 43 50c33 0 52 -33 52 -75c0 -78 -79 -185 -165 -196c-9 -1 -13 2 -13 8s4 13 13 19z" />
    <glyph glyph-name="exclam" unicode="!" horiz-adv-x="291" 
d="M214 831c-22 -133 -76 -396 -76 -548c0 -28 -10 -42 -22 -42c-17 0 -23 36 -23 121c-1 138 3 373 32 474c6 21 29 35 50 35s40 -14 40 -34c0 -2 -1 -4 -1 -6zM114 106c32 0 51 -30 51 -62c0 -30 -16 -58 -62 -58c-31 0 -44 24 -44 50c0 36 26 70 55 70z" />
    <glyph glyph-name="Euro" unicode="&#x20ac;" horiz-adv-x="881" 
d="M113 410c-14 -2 -29 6 -31 18c-3 16 7 26 28 33c12 4 44 6 84 8c60 174 197 333 372 363c137 24 247 -58 247 -184c0 -53 -34 -133 -99 -133c-30 0 -54 27 -53 56c1 27 15 37 30 44c20 10 43 15 48 46c1 8 2 17 2 25c-2 68 -62 127 -149 116
c-126 -15 -247 -169 -304 -332c88 0 179 -4 206 -9c12 -2 18 -10 17 -17c-1 -9 -10 -18 -27 -16c-29 3 -122 5 -209 1c-8 -29 -13 -58 -16 -86c93 2 189 0 216 -5c12 -2 18 -10 17 -17c-1 -8 -10 -16 -24 -15c-42 3 -130 -1 -213 -8c-4 -172 78 -300 217 -303
c133 0 241 92 328 191c4 5 13 6 17 2s4 -11 -3 -20c-89 -117 -217 -235 -385 -235c-168 2 -275 163 -269 356c-33 -3 -61 -8 -78 -11c-15 -3 -32 2 -36 16c-4 12 1 28 20 35c13 5 50 8 97 11c4 26 9 53 16 80c-28 -4 -52 -9 -66 -10z" />
    <glyph glyph-name="sterling" unicode="&#xa3;" horiz-adv-x="986" 
d="M289 396c-14 -4 -29 6 -31 18c-3 16 5 23 26 29c19 5 59 8 107 10c21 60 40 118 60 166c46 115 131 256 268 256c76 0 143 -50 142 -138c0 -52 -25 -147 -97 -147c-25 0 -42 16 -45 40c-3 25 15 50 34 61c26 15 59 26 59 69c0 44 -38 82 -77 82c-55 0 -104 -54 -148 -135
c-41 -75 -76 -163 -112 -253c99 1 205 -4 239 -12c11 -3 16 -10 16 -18c0 -11 -7 -17 -26 -14c-46 7 -150 9 -245 5l-42 -102c-26 -62 -62 -114 -101 -159c18 1 37 2 55 2c380 0 527 -72 527 -152c0 -24 -20 -44 -40 -44c-13 0 -26 8 -34 28c-17 41 2 61 -80 91
c-98 36 -194 40 -292 40c-82 0 -148 -12 -200 -28c-75 -64 -150 -99 -188 -101c-58 -3 -68 29 -61 53c13 45 122 89 262 106c48 85 81 172 111 260c-35 -4 -66 -8 -87 -13z" />
    <glyph glyph-name="yen" unicode="&#xa5;" horiz-adv-x="731" 
d="M189 217c-14 -3 -26 6 -29 18c-3 13 5 25 27 29c13 2 48 8 87 12c-35 8 -65 23 -89 42c-96 75 -116 224 -123 319c-1 16 -3 87 2 137c3 35 26 51 48 51s39 -16 38 -46c-1 -34 -2 -70 2 -133c8 -119 36 -328 205 -324c114 2 237 160 291 298c18 45 37 124 26 153
c-7 18 -34 17 -44 36c-4 8 -6 16 -6 23c-1 33 31 62 60 64c34 3 56 -28 59 -75c2 -39 -6 -92 -23 -140c-50 -144 -171 -352 -328 -400v-1c63 -1 121 -4 144 -8c11 -2 16 -10 16 -18c0 -11 -10 -16 -29 -14c-23 2 -77 1 -136 -3c-1 -21 0 -44 1 -77c75 -1 146 -4 179 -11
c11 -2 17 -10 17 -19c0 -12 -9 -15 -24 -13c-37 4 -103 3 -172 1c2 -47 7 -92 10 -114c5 -33 2 -59 -33 -64c-26 -4 -43 17 -52 51c-6 22 -9 71 -11 123c-64 -4 -121 -10 -150 -16c-15 -3 -34 3 -36 16c-2 11 2 24 21 31s87 12 165 14c0 29 2 53 4 73
c-48 -4 -91 -10 -117 -15z" />
    <glyph glyph-name="cent" unicode="&#xa2;" horiz-adv-x="617" 
d="M459 479c0 -35 -24 -78 -67 -74c-29 3 -40 19 -41 40c-1 39 31 42 36 63c9 40 -15 66 -47 67c-18 -84 -23 -169 -27 -242c-5 -76 -9 -140 -9 -193c48 12 99 51 141 105c35 45 66 103 86 141c7 13 28 8 22 -9c-39 -109 -142 -249 -249 -294c2 -32 5 -57 11 -74
c15 -45 -29 -60 -41 -32c-5 14 -8 49 -9 94c-9 -2 -19 -3 -28 -3c-94 0 -148 84 -146 196c3 149 88 317 217 339c5 31 12 58 19 75c12 31 49 20 38 -12c-7 -20 -13 -40 -18 -61c67 -4 113 -60 112 -126zM284 426c3 28 9 84 17 137c-60 -38 -118 -162 -119 -284
c0 -68 23 -137 83 -143c1 100 11 220 19 290z" />
    <glyph glyph-name="dollar" unicode="$" horiz-adv-x="738" 
d="M409 851c2 11 9 42 13 62c4 21 17 30 27 29c13 -1 24 -13 17 -40c-4 -15 -8 -31 -11 -47c92 0 163 -57 175 -126c7 -45 -14 -100 -61 -102c-29 -1 -58 15 -61 44c-5 55 50 54 45 80c-10 47 -58 65 -105 69c-21 -109 -33 -235 -43 -348c112 -75 250 -143 262 -251
c16 -150 -133 -247 -273 -269c4 -43 8 -79 14 -100c6 -23 -6 -35 -20 -35c-10 0 -20 6 -25 18c-8 22 -14 62 -17 112c-136 -4 -313 60 -310 217c1 47 18 119 73 151c26 15 83 23 90 -36c3 -21 -1 -50 -28 -65c-26 -15 -69 -10 -71 -56c-6 -113 114 -181 244 -177
c-5 103 -5 269 9 421c-85 50 -165 105 -174 195c-11 107 110 231 230 254zM580 170c5 97 -86 153 -183 208c-16 -126 -13 -257 -5 -392c88 15 183 72 188 184zM262 644c6 -56 47 -101 101 -142c10 102 24 214 40 315c-1 0 -2 -1 -3 -1c-77 -15 -146 -99 -138 -172z" />
    <glyph glyph-name="quotedbl" unicode="&#x22;" horiz-adv-x="303" 
d="M183 742c1 17 25 36 49 36s43 -19 43 -37c-11 -37 -26 -173 -21 -220v-11c0 -16 -6 -21 -15 -21c-29 0 -63 155 -56 253zM49 742c2 27 22 37 43 37c16 0 45 -7 45 -33c-12 -56 -22 -135 -22 -200v-20c0 -16 -6 -27 -16 -27c-20 0 -51 99 -51 212c0 10 0 21 1 31z" />
    <glyph glyph-name="mu" unicode="&#xb5;" horiz-adv-x="595" 
d="M14 415c4 16 21 31 44 28c22 -3 41 -14 34 -47c-7 -28 -15 -65 -20 -108c-15 -122 -4 -251 47 -232c55 21 116 125 186 315c13 35 35 47 52 47c27 0 41 -17 46 -70c13 -137 37 -258 80 -258c35 0 84 104 103 167c3 12 10 16 15 15c6 -1 10 -8 8 -19
c-11 -59 -64 -220 -154 -232c-108 -14 -119 189 -129 298c-37 -103 -134 -323 -229 -341c-16 -3 -37 0 -57 14c-11 -165 -12 -345 8 -488c3 -25 -11 -43 -32 -46c-17 -3 -40 5 -45 26c-27 126 -24 645 43 931z" />
    <glyph glyph-name="braceleft" unicode="{" horiz-adv-x="454" 
d="M537 869c6 -6 9 -12 9 -17c0 -6 -5 -11 -12 -11c-4 0 -9 1 -15 5c-29 19 -89 35 -131 25c-66 -15 -95 -56 -103 -100c-11 -57 -1 -192 -3 -251c-3 -103 -82 -182 -117 -190c43 -10 90 -77 90 -125c1 -94 -22 -172 -19 -267c3 -54 11 -165 93 -165c33 0 83 14 111 31
c6 4 11 5 15 5c5 0 8 -3 8 -7c0 -3 -2 -7 -5 -10c-21 -24 -93 -64 -163 -59c-77 5 -139 36 -148 107c-15 124 51 217 51 395c0 24 -9 46 -36 59c-23 11 -73 14 -83 22c-10 9 -15 16 -15 22c0 14 29 19 54 28c29 9 68 33 84 64c27 55 -4 186 -12 243c-21 156 64 244 195 244
c53 0 110 -11 152 -48z" />
    <glyph glyph-name="braceright" unicode="}" horiz-adv-x="395" 
d="M-159 -222c-6 6 -9 12 -9 17c0 6 5 11 12 11c4 0 10 -1 15 -5c23 -15 65 -28 102 -28c60 0 120 38 132 103c11 57 1 192 3 251c3 103 86 185 121 193c-54 15 -95 82 -95 139c0 68 23 162 20 250c-3 52 -14 165 -96 165c-33 -1 -81 -14 -108 -31c-6 -4 -11 -5 -15 -5
c-5 0 -8 3 -8 7c0 3 2 6 5 10c21 24 93 64 163 59c85 -6 150 -43 150 -146c-1 -106 -53 -197 -53 -356c0 -24 9 -46 36 -59c23 -11 73 -14 83 -22c10 -9 15 -16 15 -22c0 -14 -29 -19 -54 -28c-29 -9 -68 -33 -84 -64c-8 -15 -11 -36 -11 -60c-1 -75 26 -147 26 -227
c0 -128 -80 -198 -198 -200c-53 0 -110 11 -152 48z" />
    <glyph glyph-name="ampersand" unicode="&#x26;" horiz-adv-x="960" 
d="M746 -109c2 -55 -24 -140 -94 -140c-28 0 -50 21 -50 51c0 25 17 57 48 57c10 0 18 -5 28 -5c22 2 27 34 27 54c0 11 -1 23 -7 41c-18 53 -89 125 -162 192c-91 -82 -276 -254 -410 -254c-68 -1 -144 41 -144 127c0 135 209 271 309 338c-68 64 -128 140 -130 225
c0 168 181 302 348 302c105 -3 205 -81 205 -185c0 -153 -199 -241 -329 -320c57 -55 118 -106 177 -166c86 66 168 131 263 131c44 -1 93 -27 93 -78c0 -26 -16 -50 -49 -51c-50 -1 -47 73 -103 73c-56 -1 -130 -53 -182 -99c49 -56 94 -118 128 -176
c24 -41 33 -82 34 -117zM497 846c-126 0 -244 -128 -244 -258c2 -66 44 -125 108 -190c109 70 271 164 263 323c-3 71 -35 125 -127 125zM175 -41c122 0 243 125 336 205c-100 88 -148 123 -195 165c-87 -59 -227 -164 -230 -286c0 -49 34 -84 89 -84z" />
    <glyph glyph-name="backslash" unicode="\" horiz-adv-x="412" 
d="M31 925c40 -73 109 -282 130 -359c48 -179 120 -557 111 -629c-3 -22 -19 -31 -35 -29c-15 2 -29 13 -30 34c-3 88 -40 341 -70 466c-39 159 -76 340 -156 493c-16 31 3 51 24 47c10 -2 18 -9 26 -23z" />
    <glyph glyph-name="percent" unicode="%" horiz-adv-x="794" 
d="M184 780c11 4 34 5 45 -12s6 -46 -16 -58c-62 -34 -87 -85 -93 -150c-5 -59 27 -118 75 -117c76 1 143 98 145 185c0 23 -2 39 -6 52c-28 0 -78 26 -78 62c0 24 14 48 43 48c30 -1 55 -35 68 -76c72 -2 224 18 275 55c28 7 46 -24 17 -50c-119 -107 -150 -141 -272 -317
c-89 -128 -134 -205 -165 -284c-6 -16 -13 -41 -13 -56c0 -21 8 -32 0 -57c-9 -30 -40 -38 -60 -36c-23 2 -43 29 -31 73c21 76 179 312 254 411c34 45 131 174 200 253c-60 -16 -138 -28 -196 -28c0 -6 1 -11 1 -16c1 -122 -83 -262 -203 -264c-69 -1 -135 49 -131 161
c3 86 64 192 141 221zM428 278c8 8 16 14 23 18c40 32 72 56 124 58c75 3 131 -36 128 -134c-3 -112 -90 -239 -211 -246c-61 -4 -134 31 -134 137c0 51 25 120 70 167zM595 315c-46 0 -78 -23 -106 -52c-2 -8 -6 -15 -12 -21c-29 -28 -39 -84 -39 -125
c0 -44 13 -107 74 -104c89 4 146 113 150 202c2 53 -17 99 -67 100z" />
    <glyph glyph-name="perthousand" unicode="&#x2030;" horiz-adv-x="1076" 
d="M726 278c8 8 16 14 23 18c40 32 72 56 124 58c75 3 131 -36 128 -134c-3 -112 -90 -239 -211 -246c-53 -3 -114 22 -130 97c-38 -54 -94 -93 -160 -97c-61 -4 -134 31 -134 137c0 51 25 120 70 167c8 8 16 14 23 18c40 32 72 56 124 58c64 2 115 -26 126 -96
c5 7 11 13 17 20zM192 780c11 4 34 5 45 -12s6 -46 -16 -58c-62 -34 -87 -85 -93 -150c-5 -59 27 -118 75 -117c76 1 143 98 145 185c0 23 -2 39 -6 52c-28 0 -78 26 -78 62c0 24 14 48 43 48c30 -1 55 -35 68 -76c72 -2 224 18 275 55c28 7 46 -24 17 -50
c-119 -107 -150 -141 -272 -317c-89 -128 -134 -205 -165 -284c-6 -16 -13 -41 -13 -56c0 -21 8 -32 0 -57c-9 -30 -40 -38 -60 -36c-23 2 -43 29 -31 73c21 76 179 312 254 411c34 45 131 174 200 253c-60 -16 -138 -28 -196 -28c0 -6 1 -11 1 -16
c1 -122 -83 -262 -203 -264c-69 -1 -135 49 -131 161c3 86 64 192 141 221zM603 315c-46 0 -78 -23 -106 -52c-2 -8 -6 -15 -12 -21c-29 -28 -39 -84 -39 -125c0 -44 13 -107 74 -104c89 4 146 113 150 202c2 53 -17 99 -67 100zM893 315c-46 0 -78 -23 -106 -52
c-2 -8 -6 -15 -12 -21c-29 -28 -39 -84 -39 -125c0 -44 13 -107 74 -104c89 4 146 113 150 202c2 53 -17 99 -67 100z" />
    <glyph glyph-name="plus" unicode="+" horiz-adv-x="575" 
d="M318 107c6 -34 -14 -45 -35 -47c-27 -3 -44 21 -47 46c-4 32 -5 85 -3 139c-48 -3 -91 -8 -116 -13c-17 -4 -30 9 -31 22c0 9 6 18 20 22c18 4 69 10 129 14c2 58 7 112 12 135c3 14 17 32 38 32c26 0 38 -22 36 -40c-3 -26 -6 -73 -8 -123c70 3 137 3 160 -1
c10 -2 14 -7 14 -13c0 -10 -13 -22 -35 -23c-23 -1 -79 -3 -140 -7c-1 -57 1 -113 6 -143z" />
    <glyph glyph-name="bar" unicode="|" horiz-adv-x="393" 
d="M154 903c9 48 62 35 56 -14c-26 -202 -29 -765 8 -985c7 -39 -47 -61 -62 -19c-38 109 -36 837 -2 1018z" />
    <glyph glyph-name="currency" unicode="&#xa4;" horiz-adv-x="722" 
d="M209 539c9 8 29 5 48 -1c0 0 0 1 1 2c-28 24 -81 84 -95 130c-7 20 4 42 21 42c11 0 25 -10 38 -36c12 -27 33 -66 64 -101c35 29 83 43 123 40c35 -2 72 -17 103 -41c22 37 68 93 95 112c7 5 13 7 19 7c15 -1 27 -15 27 -29c0 -7 -3 -13 -9 -18
c-21 -18 -68 -59 -97 -107c23 -30 37 -66 37 -110c0 -49 -13 -93 -37 -129c28 -22 61 -58 82 -87c4 -6 6 -11 6 -16c1 -16 -14 -29 -28 -29c-7 0 -13 3 -19 10c-23 28 -46 69 -70 88c-39 -39 -94 -62 -154 -62c-64 0 -119 20 -155 60c-26 -27 -46 -66 -68 -98
c-10 -15 -22 -21 -31 -21c-15 0 -26 13 -26 31c0 6 1 13 5 21c14 28 58 76 96 102c-14 25 -22 56 -22 92c-2 57 14 118 46 148zM400 578c-50 7 -91 -24 -114 -59c7 -6 9 -13 4 -19c-20 -16 -37 -58 -39 -101c-3 -80 34 -153 109 -153c82 0 135 99 135 180
c0 94 -39 143 -95 152z" />
    <glyph glyph-name="asterisk" unicode="*" horiz-adv-x="424" 
d="M204 522c2 -19 -9 -28 -21 -29c-10 -1 -22 5 -28 16c-10 19 -13 61 -11 108c-31 -18 -61 -38 -86 -57c-8 -6 -16 -8 -22 -8c-12 1 -19 9 -20 20c0 6 1 13 6 20c14 19 55 47 104 74c-27 16 -51 29 -69 38s-25 24 -25 37c0 11 6 20 18 20c3 0 6 -1 10 -2
c19 -7 53 -24 91 -46c4 42 10 79 16 100c4 15 18 22 31 21c14 -1 27 -11 24 -31c-4 -22 -9 -56 -13 -93c47 22 90 41 114 48c3 1 6 1 9 1c12 0 17 -7 17 -17c0 -13 -10 -30 -31 -38c-23 -10 -53 -24 -87 -40c48 -32 89 -64 100 -86c3 -5 4 -10 4 -15c0 -14 -10 -26 -24 -26
c-7 0 -14 2 -21 9c-26 24 -57 50 -89 72c-2 -34 0 -68 3 -96z" />
    <glyph glyph-name="asciitilde" unicode="~" horiz-adv-x="852" 
d="M230 375c-44 0 -100 -102 -109 -153c-3 -18 -14 -27 -24 -27c-9 0 -16 6 -16 20c0 65 75 176 120 202c18 11 45 15 65 12c60 -7 101 -80 136 -118c37 -42 93 -100 150 -98c56 1 110 20 162 91c35 47 23 85 38 115c5 10 13 15 22 15c12 1 25 -8 23 -24
c-12 -89 -139 -276 -257 -277c-83 -1 -137 52 -201 124c-22 25 -82 118 -109 118z" />
    <glyph glyph-name="questiondown" unicode="&#xbf;" horiz-adv-x="750" 
d="M554 816c0 -26 -21 -56 -62 -56c-32 1 -59 31 -59 57c0 28 24 60 70 60c28 0 51 -19 51 -61zM502 202c-9 42 24 66 66 64c15 -1 79 -17 83 -97c4 -160 -202 -275 -357 -267c-113 6 -250 53 -248 181c0 165 218 212 321 315c39 38 70 71 70 100c0 32 -54 20 -53 64
c0 29 23 49 56 50c38 0 62 -36 63 -75c4 -177 -349 -249 -352 -462c0 -83 58 -135 145 -140c120 -7 281 81 277 209c0 14 -19 16 -38 24c-14 5 -29 14 -33 34z" />
    <glyph glyph-name="exclamdown" unicode="&#xa1;" horiz-adv-x="298" 
d="M157 -46v-6c-4 -20 -25 -30 -46 -27c-20 5 -41 22 -42 44c-10 105 28 336 54 472c14 83 41 188 56 188c11 0 20 -17 14 -45c-27 -149 -34 -492 -36 -626zM154 819c0 29 15 56 41 56c37 0 62 -23 63 -54c0 -34 -21 -67 -52 -67c-35 0 -52 38 -52 65z" />
    <glyph glyph-name="OE" unicode="&#x152;" horiz-adv-x="1456" 
d="M1232 309c0 -27 -27 -42 -54 -42c-24 0 -55 10 -68 12c-131 -3 -314 -131 -314 -280c0 -76 64 -124 150 -124c217 0 434 223 513 422c7 18 18 22 23 21c7 -1 9 -18 5 -29c-80 -226 -321 -477 -583 -477c-134 0 -212 72 -212 166c0 10 1 20 2 29
c-82 -106 -198 -175 -335 -181c-201 -9 -345 150 -356 396c-6 132 32 261 94 361c55 91 162 189 242 196c44 46 111 74 174 77c104 4 198 -65 256 -176c79 125 248 204 399 204c129 0 243 -59 243 -192c0 -52 -33 -142 -102 -142c-37 0 -62 21 -62 60c0 14 6 28 17 39
c27 28 71 38 75 80c-1 82 -69 121 -170 121c-154 0 -348 -155 -348 -326c0 -80 55 -138 126 -170c46 -20 110 -29 158 -29c16 5 69 22 94 21c21 -1 33 -12 33 -37zM525 810c-95 -4 -162 -106 -166 -201c-3 -66 48 -159 127 -159c27 0 54 15 74 39c20 23 28 76 68 76
c18 0 38 -13 39 -42c3 -65 -72 -104 -147 -107c-111 -4 -235 76 -241 206c-1 36 5 70 19 99c-133 -90 -209 -297 -201 -475c7 -165 104 -365 300 -356c210 10 378 231 386 513c-36 34 -59 78 -59 131c0 36 8 70 21 101c-43 104 -120 179 -220 175zM825 370
c-5 -77 -22 -151 -48 -218c75 76 187 130 273 152c-66 0 -156 22 -225 66z" />
    <glyph glyph-name="oe" unicode="&#x153;" horiz-adv-x="741" 
d="M415 223h-8c-7 -39 -8 -79 -2 -115c12 -73 66 -109 123 -91c54 17 158 95 200 257c5 19 12 27 18 27c7 -1 12 -11 9 -27c-16 -90 -66 -179 -130 -242c-41 -41 -101 -86 -165 -83c-49 2 -90 32 -116 74c-13 20 -23 43 -28 75c-43 -77 -110 -136 -191 -141
c-120 -6 -175 105 -169 208c7 118 82 232 153 254c4 1 13 3 21 3c20 38 66 64 107 64c74 0 114 -66 127 -135c11 17 23 35 37 52c33 41 92 88 152 88c35 0 70 -15 82 -49c4 -12 6 -25 6 -37c0 -23 -8 -44 -17 -61c-38 -68 -164 -121 -209 -121zM143 15c96 3 155 101 175 211
c-113 -4 -193 73 -197 152c-44 -44 -83 -131 -78 -235c3 -69 41 -130 100 -128zM473 396c-23 -38 -45 -85 -58 -134c46 5 97 19 130 70c18 28 33 63 33 90c0 19 -10 42 -35 40c-23 -2 -51 -35 -70 -66zM205 372c0 -69 55 -109 120 -109c1 11 2 22 2 33c0 80 -32 148 -70 148
c-32 0 -52 -45 -52 -72z" />
    <glyph glyph-name="zero" unicode="0" horiz-adv-x="775" 
d="M108 565c26 3 34 -4 34 -17c0 -14 -8 -35 -16 -60c-27 -82 -23 -162 -3 -252c26 -107 101 -256 236 -256c184 0 299 266 299 469c0 190 -94 376 -249 385c-82 5 -180 -49 -189 -109c-4 -27 10 -45 10 -62c0 -23 -26 -44 -49 -44c-29 0 -59 26 -59 61c0 24 13 50 25 68
c47 71 160 120 263 120c195 0 335 -169 339 -423c0 -216 -134 -500 -393 -500c-162 0 -276 108 -315 268c-21 84 -29 215 8 298c13 28 32 50 59 54z" />
    <glyph glyph-name="one" unicode="1" horiz-adv-x="467" 
d="M62 498c-18 -6 -27 5 -27 12s7 17 25 25c64 29 185 171 262 298c10 16 25 25 40 25c21 0 44 -17 44 -40c0 -7 -10 -41 -13 -57c-32 -148 -47 -256 -50 -379c-2 -116 -1 -236 25 -354c7 -32 -22 -58 -48 -59c-17 0 -33 10 -42 35c-16 47 -20 163 -19 269
c3 140 12 294 39 448c-48 -78 -158 -198 -236 -223z" />
    <glyph glyph-name="two" unicode="2" horiz-adv-x="778" 
d="M627 53c-57 33 -112 42 -187 42c-56 0 -112 -9 -166 -32c-78 -33 -123 -80 -166 -89c-25 -5 -56 12 -58 40c-2 37 29 57 62 70c80 35 171 82 249 147c135 112 241 268 241 434c0 86 -34 170 -149 170c-99 0 -235 -97 -238 -210c0 -34 17 -38 32 -53c13 -13 28 -30 28 -53
c0 -31 -30 -58 -68 -58c-56 0 -77 55 -76 105c0 150 172 301 327 301c132 0 239 -93 240 -213c0 -227 -293 -459 -421 -529c139 21 285 -3 356 -30c74 -28 110 -54 110 -88c0 -19 -14 -37 -37 -39c-26 -1 -43 15 -48 33c-5 17 -14 43 -31 52z" />
    <glyph glyph-name="three" unicode="3" horiz-adv-x="712" 
d="M47 105c-6 35 15 76 55 84c28 6 51 -10 62 -32c17 -35 -15 -77 6 -120c22 -45 80 -80 161 -76c159 8 241 136 241 243c0 64 -32 130 -91 165c-60 -35 -123 -54 -172 -55c-48 -1 -82 15 -83 49c-1 48 64 66 113 66c54 0 96 -7 140 -20c65 51 110 143 110 233
c0 98 -69 202 -180 202h-12c-119 -8 -227 -124 -218 -202c3 -26 44 -33 44 -76c-1 -33 -33 -55 -64 -53c-41 2 -67 38 -67 75c0 143 156 285 319 289h16c66 -2 130 -26 177 -68c42 -38 73 -96 73 -165c0 -144 -128 -231 -158 -251c75 -41 148 -107 149 -207
c0 -154 -178 -255 -327 -257s-272 55 -294 176zM289 367c0 -14 20 -17 38 -17c41 0 79 14 116 34c-17 7 -57 10 -87 10c-32 0 -67 -6 -67 -27z" />
    <glyph glyph-name="four" unicode="4" horiz-adv-x="772" 
d="M146 248c-26 -16 -63 -46 -94 -46c-26 0 -42 20 -42 50c1 110 233 377 233 457c0 31 -48 38 -48 71c-1 30 35 55 65 56c29 0 54 -22 53 -56c-6 -109 -216 -443 -184 -485c103 53 236 102 360 119c18 112 40 207 53 249c5 18 23 25 41 24c21 -1 39 -15 35 -39
c-12 -66 -30 -143 -46 -228c16 0 31 0 46 -1c56 -5 145 -26 145 -84c0 -21 -13 -47 -43 -51c-21 -3 -47 14 -46 41c1 39 -40 53 -72 56c-13 1 -24 2 -36 2c-13 -66 -24 -169 -23 -257c1 -56 8 -109 28 -140c3 -4 5 -9 5 -13c2 -20 -28 -31 -46 -31c-23 0 -45 18 -55 39
c-9 19 -11 78 -10 151c1 83 8 166 20 250c-141 -14 -261 -86 -339 -134z" />
    <glyph glyph-name="five" unicode="5" horiz-adv-x="709" 
d="M249 786c-38 -85 -64 -260 -63 -341c50 31 123 53 178 55c156 4 300 -90 300 -245c0 -183 -196 -312 -376 -312c-84 0 -242 42 -242 152c0 34 24 74 64 74c23 0 47 -18 48 -54c0 -4 0 -9 -1 -14c-11 -79 65 -125 142 -125c133 0 274 118 274 285c0 113 -102 212 -224 206
c-66 -3 -137 -43 -171 -75c-9 -9 -21 -12 -32 -12c-31 0 -48 30 -48 61c-1 85 42 287 62 344c-2 19 20 49 49 49c6 0 12 -2 19 -5c49 -23 101 -35 158 -35c30 0 60 2 92 9c43 8 52 23 66 42c12 16 29 22 46 22c24 0 51 -18 51 -48c0 -63 -123 -68 -171 -68
c-66 0 -149 9 -221 35z" />
    <glyph glyph-name="six" unicode="6" horiz-adv-x="730" 
d="M648 716c0 -40 -25 -82 -72 -82c-26 0 -55 21 -55 51c0 26 30 40 30 69c0 36 -37 70 -81 70c-194 0 -315 -245 -339 -439c85 77 202 134 320 134c137 0 254 -69 256 -219c3 -191 -172 -351 -346 -351s-266 98 -301 232c-16 9 -28 28 -29 51c0 12 2 24 14 48
c-1 14 -1 28 -1 43c0 227 170 534 423 534c96 0 180 -62 181 -141zM128 288c8 -118 66 -299 203 -302c151 0 288 154 288 314c0 88 -49 189 -165 189c-68 0 -133 -19 -186 -57c-59 -41 -106 -85 -140 -144z" />
    <glyph glyph-name="seven" unicode="7" horiz-adv-x="654" 
d="M607 431c17 -9 28 -19 28 -32c0 -16 -18 -27 -33 -27c-25 0 -24 23 -42 34c-21 14 -53 20 -89 20c-26 0 -51 -2 -82 -6c-28 -56 -52 -111 -72 -163c-21 -57 -55 -145 -55 -211c0 -25 7 -49 7 -65c-1 -26 -26 -41 -51 -41c-33 0 -48 23 -48 62c1 82 43 236 125 404
c-56 -10 -110 -19 -143 -19c-26 0 -79 8 -79 47c0 23 20 44 47 44c32 0 40 -27 70 -37c15 -5 34 -6 55 -6s44 2 68 5c83 153 174 290 249 356c-69 -17 -193 -43 -288 -48c-31 -2 -61 -2 -87 -2c-34 0 -114 0 -114 53c0 24 14 51 45 51c34 -1 41 -36 66 -49
c19 -10 60 -16 100 -15c63 1 150 15 230 34c48 11 115 37 142 39c24 2 38 -17 38 -37c0 -13 -7 -28 -22 -40c-26 -21 -50 -41 -78 -67c-75 -72 -137 -163 -189 -263c13 1 26 2 38 2c101 1 140 -11 164 -23z" />
    <glyph glyph-name="eight" unicode="8" horiz-adv-x="679" 
d="M176 549c0 34 37 62 62 63c13 0 23 -7 24 -24c1 -44 44 -83 101 -125c88 45 205 115 205 222c0 89 -82 159 -176 159c-112 -1 -210 -53 -221 -109c-5 -25 28 -30 28 -58c0 -24 -23 -51 -51 -51c-35 0 -60 25 -60 62c0 23 9 47 19 62c57 82 162 123 285 123
c102 -1 265 -42 265 -184c-1 -82 -55 -135 -126 -183c-40 -27 -86 -47 -133 -68c49 -35 104 -74 151 -119c53 -50 92 -106 93 -166c0 -142 -175 -210 -303 -212c-125 -1 -332 43 -332 213c4 122 156 211 274 269c-41 24 -105 78 -105 126zM487 280c-49 49 -114 87 -169 120
c-61 -30 -119 -67 -162 -123c-27 -35 -48 -79 -48 -131c0 -107 103 -168 212 -168c97 0 225 62 225 183c-1 41 -21 82 -58 119z" />
    <glyph glyph-name="nine" unicode="9" horiz-adv-x="698" 
d="M402 862c202 0 254 -200 252 -397c-1 -146 -28 -320 -117 -420c-53 -60 -122 -103 -239 -103c-67 0 -121 16 -162 38c-43 23 -103 76 -103 127c0 38 26 70 67 70c21 0 54 -16 54 -48c0 -28 -21 -44 -15 -73c8 -41 85 -82 149 -82c258 0 300 354 276 588
c-44 -133 -168 -239 -293 -239c-118 0 -216 75 -215 205c2 177 166 334 346 334zM292 376c195 0 246 221 246 280c0 62 -48 174 -143 173c-76 -1 -144 -39 -197 -119c-35 -52 -54 -128 -54 -187c0 -85 68 -147 148 -147z" />
    <glyph glyph-name="germandbls" unicode="&#xdf;" horiz-adv-x="666" 
d="M106 -13c10 -28 -11 -48 -37 -49c-20 -1 -43 10 -56 39c-28 61 -42 200 -22 353c26 204 146 513 365 513c97 0 160 -66 160 -159c0 -147 -209 -277 -209 -351c0 -33 53 -62 116 -95c32 -17 65 -35 94 -56c63 30 115 59 145 108c11 19 19 24 27 21c9 -3 11 -13 2 -32
c-21 -46 -81 -86 -147 -120c20 -20 34 -42 37 -67c14 -118 -150 -255 -302 -255c-49 0 -106 22 -106 84c0 71 75 131 168 179c39 20 77 37 113 53c-14 17 -32 34 -55 50c-49 34 -102 64 -135 91c-19 15 -36 36 -36 64c0 74 195 218 195 360c0 53 -19 90 -75 90
c-88 0 -166 -102 -214 -240c-33 -95 -50 -219 -55 -292c-9 -137 -3 -202 27 -289zM482 87c-2 13 -5 25 -10 37c-42 -19 -80 -35 -108 -49c-77 -38 -146 -101 -146 -151c0 -24 20 -47 59 -47c90 0 217 107 205 210z" />
    <glyph glyph-name="R" unicode="R" horiz-adv-x="906" 
d="M385 213c163 15 344 238 344 407c3 112 -45 228 -165 223c-115 -5 -201 -104 -261 -200c-83 -134 -121 -336 -123 -478c0 -95 17 -230 33 -305c6 -25 -4 -51 -28 -61c-19 -8 -47 -4 -60 12c-27 35 -37 177 -36 284c1 147 41 294 15 431c-12 59 -36 89 -55 102
c-35 24 -68 0 -100 6c-26 4 -49 24 -49 56c0 36 35 63 72 63c69 -1 128 -77 166 -187c13 -40 22 -94 27 -154c16 70 40 149 94 247c50 92 166 214 294 224c168 14 274 -112 273 -271c0 -214 -203 -348 -391 -420c96 17 152 -68 174 -129c33 -88 53 -136 97 -135
c88 0 155 196 192 336c5 19 11 26 18 27c6 1 15 -1 11 -20c-39 -196 -124 -416 -258 -416c-60 0 -108 40 -159 202c-20 62 -37 102 -68 112c-9 3 -18 4 -27 4c-38 0 -70 -28 -106 -28c-22 -1 -42 15 -42 42c1 20 21 33 43 33c26 0 63 -6 75 -7z" />
    <glyph glyph-name="V" unicode="V" horiz-adv-x="743" 
d="M338 -139c-66 0 -100 95 -111 158c-31 169 -53 418 -82 499c-17 45 -51 89 -116 98c-28 4 -54 15 -59 50c-5 38 18 83 67 86c77 5 133 -149 152 -213c17 -62 83 -325 118 -454c22 -80 47 -138 66 -138c64 0 153 278 254 537c86 220 177 426 261 426c30 0 56 -19 56 -58
c0 -29 -22 -57 -53 -54c-11 1 -25 4 -39 4c-50 0 -130 -180 -194 -348c-106 -275 -203 -593 -320 -593z" />
    <glyph glyph-name="X" unicode="X" horiz-adv-x="1146" 
d="M1093 760c-25 0 -37 31 -64 31c-48 0 -111 -60 -145 -93c-79 -75 -157 -176 -212 -253c58 -210 129 -535 222 -535c109 0 210 251 247 356c3 8 9 19 15 18s9 -9 4 -29c-4 -17 -116 -420 -310 -420c-157 0 -215 421 -244 511c-97 -152 -300 -454 -466 -454
c-78 0 -150 70 -150 155c0 31 21 66 62 66c28 0 58 -25 58 -58c0 -23 -14 -46 0 -74c10 -19 26 -32 50 -32c138 0 300 243 424 427l12 17c-44 183 -75 357 -146 353c-40 -2 -41 -95 -100 -95c-26 0 -54 19 -54 49c0 52 60 86 118 87c153 0 206 -168 246 -301
c120 166 296 382 415 382c35 0 65 -18 65 -59c0 -17 -22 -49 -47 -49z" />
    <glyph glyph-name="T" unicode="T" horiz-adv-x="550" 
d="M334 783l3 8c6 15 21 22 35 23c13 0 27 -7 35 -19c72 14 150 31 234 46c48 9 113 18 168 18c61 0 110 -12 110 -51c0 -20 -24 -38 -45 -38c-10 0 -22 7 -29 17c-14 19 -37 33 -82 33c-114 0 -226 -31 -352 -60c-36 -180 -67 -441 -72 -611c-3 -100 -3 -136 6 -238
c2 -27 -15 -52 -41 -55c-22 -2 -46 14 -55 42c-9 29 -11 145 -8 218c8 161 35 451 81 626c-33 -6 -180 -29 -257 -29c-39 0 -130 6 -133 67c-2 32 21 70 58 70c14 0 34 -4 51 -23c23 -24 21 -52 111 -56c16 -1 31 -1 47 -1c42 1 87 6 135 13z" />
    <glyph glyph-name="W" unicode="W" horiz-adv-x="1130" 
d="M798 -58c180 0 224 434 242 599c11 85 10 216 34 287c9 28 30 57 57 61c32 5 53 -16 56 -43c1 -18 -9 -45 -32 -58c-25 -15 -49 -52 -61 -100c-12 -56 -12 -109 -15 -138c-22 -212 -65 -675 -322 -675c-221 2 -251 484 -260 615c-24 -95 -180 -543 -351 -543
c-87 -1 -140 83 -140 222s83 322 83 412c-1 61 -94 53 -94 122c0 34 27 65 64 63c32 -2 59 -29 71 -84c3 -16 6 -32 6 -52c4 -143 -44 -264 -40 -411c4 -122 49 -191 90 -191c100 0 220 292 262 426c12 39 37 133 77 133c30 0 56 -21 61 -75c18 -173 64 -570 212 -570z" />
    <glyph glyph-name="w" unicode="w" horiz-adv-x="716" 
d="M575 387c26 -31 67 -62 109 -62c17 0 34 6 51 19c11 8 15 10 18 8c4 -3 3 -12 -2 -23c-13 -29 -37 -39 -63 -40c-36 -1 -78 17 -105 34c1 -22 4 -48 4 -66c-1 -140 -52 -309 -178 -309c-95 0 -137 157 -157 280c-30 -82 -78 -222 -148 -239c-8 -2 -16 -3 -23 -3
c-39 1 -72 30 -86 90c-25 103 0 252 14 328c5 26 27 34 48 30c24 -5 45 -25 39 -54c-19 -89 -32 -168 -23 -237c5 -39 20 -73 43 -73c48 0 102 160 127 222c8 20 24 30 40 30c17 0 34 -11 39 -30c17 -73 35 -273 117 -273c54 0 97 91 101 183c2 46 -3 94 -17 143
c-19 17 -67 32 -67 81c0 27 28 49 54 50c15 1 29 -5 39 -18c8 -11 15 -27 26 -71z" />
    <glyph glyph-name="x" unicode="x" horiz-adv-x="545" 
d="M-22 298c0 75 87 164 164 164c54 0 99 -35 125 -153c36 46 69 89 102 124c27 29 68 59 99 55c18 -1 44 -19 40 -54c-3 -30 -25 -39 -39 -37c-22 3 -25 22 -39 20c-13 -2 -29 -10 -45 -24c-26 -22 -60 -62 -108 -126c26 -105 56 -201 107 -201c48 0 114 101 148 189
c4 9 12 18 17 15c3 -2 6 -9 3 -22c-23 -94 -127 -266 -212 -266c-68 0 -95 91 -124 205l-78 -104c-65 -86 -106 -150 -143 -156c-42 -7 -60 20 -61 42c-1 25 17 66 47 66c16 0 25 -15 47 -8c11 3 53 43 86 82c21 25 54 67 93 120c-24 110 -41 204 -77 204
c-39 0 -77 -57 -77 -89c0 -25 18 -41 19 -60c0 -26 -17 -52 -46 -53c-33 0 -48 32 -48 67z" />
    <glyph glyph-name="v" unicode="v" horiz-adv-x="474" 
d="M-5 227c-3 64 -3 132 -15 156c-14 26 15 43 42 43c14 0 27 -4 33 -14c15 -24 21 -153 22 -171c7 -86 25 -222 92 -223c55 -2 111 137 124 229c9 53 6 91 -7 144c-20 18 -53 30 -51 67c2 27 31 48 57 47c44 0 53 -53 60 -89c21 -33 63 -66 101 -69c21 -1 39 7 59 20
c12 9 16 11 19 9s2 -11 -4 -22c-14 -26 -48 -42 -78 -42c-35 0 -66 18 -97 41l-7 -61c-15 -139 -86 -345 -213 -342c-95 1 -132 141 -137 277z" />
    <glyph glyph-name="dieresis" unicode="&#xa8;" horiz-adv-x="392" 
d="M124 606c-22 0 -50 16 -50 45c0 27 31 59 63 59c28 0 49 -16 49 -50c0 -29 -29 -53 -62 -54zM347 664c0 -22 -22 -54 -52 -54c-21 0 -51 18 -51 52c0 28 20 57 55 57c27 0 48 -24 48 -55z" />
    <glyph glyph-name="grave" unicode="`" horiz-adv-x="429" 
d="M104 611c-10 9 -15 20 -15 32c0 25 20 52 43 52c6 0 11 -1 17 -5c36 -21 64 -75 177 -107c11 -3 15 -9 15 -15c0 -8 -9 -16 -20 -17c-54 -3 -156 11 -217 60z" />
    <glyph glyph-name="acute" unicode="&#xb4;" horiz-adv-x="509" 
d="M171 576c-16 2 -21 9 -21 15c0 7 7 13 15 16c62 15 126 45 163 93c8 10 17 14 27 14c24 0 49 -26 49 -51c0 -11 -4 -21 -15 -29c-56 -44 -176 -64 -218 -58z" />
    <glyph glyph-name="tilde" unicode="&#x2dc;" horiz-adv-x="447" 
d="M97 582c-7 -16 -14 -23 -21 -23s-12 9 -12 22c0 18 14 42 27 61c22 31 53 58 85 58c8 0 15 -1 22 -4c32 -14 76 -70 110 -70c23 0 41 3 77 56c5 7 14 13 20 13c4 0 6 -2 6 -8c0 -3 -1 -7 -1 -11c-11 -36 -56 -120 -112 -120c-55 0 -100 68 -142 68c-20 0 -47 -10 -59 -42
z" />
    <glyph glyph-name="circumflex" unicode="&#x2c6;" horiz-adv-x="394" 
d="M40 547c-11 -2 -16 2 -16 8s6 15 17 20c28 11 93 65 131 116c8 11 19 15 29 15c17 0 33 -12 38 -23c17 -38 69 -140 126 -156c7 -2 11 -7 11 -11c0 -6 -5 -10 -20 -7c-64 10 -136 74 -166 114c-27 -29 -111 -69 -150 -76z" />
    <glyph glyph-name="cedilla" unicode="&#xb8;" horiz-adv-x="362" 
d="M158 -13c38 21 70 40 61 1c-40 -13 -73 -48 -79 -71c19 6 44 6 58 4c41 -7 75 -43 77 -87c4 -79 -72 -136 -126 -154c-44 -15 -134 -22 -153 47c-5 19 14 42 25 41c3 0 6 -3 6 -9c2 -46 47 -59 83 -50c48 12 90 60 90 125c0 27 -14 59 -42 59c-9 0 -18 -2 -27 -6
c-20 -9 -37 6 -35 24c2 25 26 56 62 76z" />
    <glyph glyph-name="divide" unicode="&#xf7;" horiz-adv-x="555" 
d="M269 163c29 0 50 -23 50 -54c0 -38 -30 -69 -59 -69c-26 0 -64 28 -64 61c0 35 39 62 73 62zM340 427c0 -34 -22 -66 -60 -66c-29 0 -56 8 -56 47c0 52 31 75 60 75c28 0 56 -21 56 -56zM109 232c-16 -3 -35 0 -39 15c-4 16 7 32 19 35c60 14 313 18 373 8
c27 -4 35 -17 29 -32c-4 -11 -12 -16 -41 -14c-65 5 -269 3 -341 -12z" />
    <glyph glyph-name="AE" unicode="&#xc6;" horiz-adv-x="1494" 
d="M1269 298c0 -26 -27 -42 -53 -42c-25 0 -55 11 -68 13c-130 -3 -312 -130 -312 -278c0 -75 63 -124 149 -124c215 0 430 222 509 420c7 17 18 21 23 20c7 -1 9 -17 5 -28c-79 -225 -318 -474 -578 -474c-133 0 -194 56 -228 191c-20 77 -32 269 -47 427
c-100 -12 -199 -35 -305 -61c-24 -53 -48 -107 -71 -157c-67 -139 -143 -250 -213 -274c-54 -20 -96 2 -103 49c-6 47 36 96 80 75c59 -27 89 -8 181 145c23 38 51 92 79 151c-71 -15 -148 -42 -229 -42c-39 0 -73 14 -73 57c0 26 23 66 54 66c34 0 42 -39 73 -49
c36 -11 110 -2 194 12c48 102 94 211 127 280c37 78 97 192 159 188c30 -2 58 -24 70 -54c32 -79 49 -227 61 -355c9 0 18 0 26 -1c-9 20 -14 43 -14 69c3 205 239 346 441 347c127 -4 241 -58 241 -191c0 -51 -34 -141 -102 -141c-37 0 -61 22 -61 60c0 14 6 29 17 39
c26 27 75 37 75 71v9c-1 81 -70 119 -169 119c-154 0 -345 -154 -345 -323c1 -80 54 -137 125 -169c45 -20 108 -29 156 -29c16 5 69 22 93 21c21 0 33 -12 33 -37zM505 676c-38 -72 -80 -171 -123 -273c93 18 186 38 284 48l-3 33c-16 145 -33 311 -71 311
c-30 0 -75 -90 -87 -119zM755 429c13 -136 25 -251 34 -316c73 90 203 156 300 180c-94 0 -232 43 -294 132c-12 3 -25 4 -40 4z" />
    <glyph glyph-name="ae" unicode="&#xe6;" horiz-adv-x="700" 
d="M374 223h-8c-7 -39 -8 -79 -2 -115c12 -73 66 -109 123 -91c54 17 158 95 200 257c5 19 12 27 18 27c7 -1 12 -11 9 -27c-16 -90 -66 -179 -130 -242c-41 -41 -101 -86 -165 -83c-49 2 -90 32 -116 74c-35 56 -35 139 -26 200c-26 -116 -83 -267 -186 -266
c-92 1 -127 114 -122 208c5 107 48 247 150 296c22 11 44 15 65 15c41 -1 77 -24 99 -58c8 11 24 19 38 19c16 0 31 -11 30 -38v-8l9 12c33 41 92 88 152 88c35 0 70 -15 82 -49c4 -12 6 -25 6 -37c0 -23 -8 -44 -17 -61c-38 -68 -164 -121 -209 -121zM120 25
c74 0 125 187 139 298c-3 14 -6 32 -11 52c-8 31 -24 62 -57 63c-90 1 -130 -169 -134 -252c-2 -47 -4 -161 63 -161zM432 396c-23 -38 -45 -85 -58 -134c46 5 97 19 130 70c18 28 33 63 33 90c0 19 -10 42 -35 40c-23 -2 -51 -35 -70 -66z" />
    <glyph glyph-name="H" unicode="H" horiz-adv-x="1089" 
d="M145 408c22 -24 20 -51 107 -58c23 -2 46 -2 69 -2c6 69 7 135 6 191c-5 179 -21 196 -28 230c-6 32 19 53 46 53c21 0 42 -12 49 -39c21 -78 25 -217 23 -301c-1 -44 -5 -87 -10 -127c87 10 185 30 298 47c16 163 55 372 77 436c8 24 29 34 49 34c25 -1 49 -19 41 -49
c-19 -76 -62 -218 -78 -411c16 1 32 2 47 2c65 0 119 -11 119 -51c0 -19 -23 -34 -42 -34c-10 0 -21 6 -28 16c-16 21 -42 35 -98 32c-4 -44 -5 -96 -5 -159c1 -151 21 -261 86 -261c76 0 159 181 204 311c10 29 14 32 21 33c6 1 13 -6 7 -31c-27 -108 -131 -379 -271 -379
c-107 1 -137 143 -137 319c0 52 1 111 6 159c-103 -16 -211 -39 -302 -53c-27 -171 -86 -309 -151 -408c-65 -98 -142 -172 -216 -172c-37 0 -72 17 -76 61c-3 35 30 67 58 70c42 5 67 -22 98 -17c41 7 83 49 119 121c45 90 71 215 84 335c-55 -6 -102 -11 -141 -11
c-57 -1 -96 7 -119 25c-11 9 -24 20 -25 43c-2 33 27 69 62 69c14 0 33 -5 51 -24z" />
    <glyph glyph-name="a" unicode="a" horiz-adv-x="520" 
d="M516 297c6 16 13 22 18 22c6 0 9 -9 6 -23c-11 -51 -75 -260 -157 -260c-68 0 -93 122 -100 215c-23 -118 -80 -295 -192 -294c-92 1 -127 114 -122 208c5 107 48 247 150 296c22 11 44 15 65 15c41 -1 77 -24 99 -58c8 11 24 19 38 19c16 0 31 -11 30 -38
c0 -30 10 -285 62 -285c36 0 94 157 103 183zM120 25c74 0 125 187 139 298c-3 14 -6 32 -11 52c-8 31 -24 62 -57 63c-90 1 -130 -169 -134 -252c-2 -47 -4 -161 63 -161z" />
    <glyph glyph-name="m" unicode="m" horiz-adv-x="806" 
d="M-10 361c4 40 22 54 44 55c20 1 43 -18 43 -39c-1 -67 -22 -282 6 -275c29 71 95 239 152 318c16 22 34 43 66 43c21 0 42 -11 53 -51c14 -52 14 -212 38 -212c24 29 54 97 82 144c13 22 32 53 63 53c17 0 34 -9 45 -46c14 -47 62 -259 102 -259c31 0 80 104 101 154
c6 14 11 22 18 22c8 0 12 -12 6 -33c-19 -66 -85 -217 -166 -217c-92 0 -124 295 -140 295c-9 0 -32 -45 -63 -104c-41 -77 -62 -128 -95 -123c-28 4 -43 30 -52 92c-13 85 -15 209 -27 209c-20 0 -112 -193 -163 -343c-10 -30 -33 -52 -51 -54c-31 -4 -49 15 -61 68
c-16 72 -8 226 -1 303z" />
    <glyph glyph-name="quoteright" unicode="&#x2019;" horiz-adv-x="258" 
d="M91 579c37 43 41 86 41 120c0 37 -24 41 -24 65c0 20 15 40 43 40c38 0 58 -35 58 -75c0 -85 -88 -185 -124 -185c-5 0 -9 3 -9 7c0 5 3 15 15 28z" />
    <glyph glyph-name="Agrave" unicode="&#xc0;" horiz-adv-x="1005" 
d="M60 426c22 -13 19 -37 52 -50c32 -13 93 -14 164 -10c53 112 106 238 142 315c37 80 99 196 163 192c30 -2 58 -24 71 -56c33 -80 50 -233 62 -364l6 -64c112 -11 179 -43 179 -74c0 -8 -9 -34 -41 -35c-31 0 -29 50 -56 63c-21 10 -48 15 -80 18
c15 -144 29 -257 36 -299c15 -99 39 -145 74 -145c58 0 142 245 158 336c3 18 9 29 19 27c12 -2 8 -26 7 -33c-17 -131 -124 -415 -222 -415c-76 0 -98 82 -117 155c-18 69 -30 228 -43 375c-109 -4 -216 -18 -332 -35c-19 -43 -39 -86 -58 -126
c-68 -142 -146 -255 -217 -281c-55 -20 -98 2 -105 51c-7 47 36 98 81 77c60 -28 91 -8 185 147c20 32 43 76 66 125c-75 -10 -148 -17 -177 -16c-47 2 -95 15 -95 66c0 27 24 63 55 63c7 0 15 -2 23 -7zM460 682c-42 -82 -89 -197 -140 -313c89 7 186 18 261 22
c17 1 34 1 50 1l-9 94c-14 148 -33 317 -73 317c-30 0 -75 -92 -89 -121zM462 1008c-10 9 -15 20 -15 32c0 25 20 52 43 52c6 0 11 -1 17 -5c36 -21 64 -75 177 -107c11 -3 15 -9 15 -15c0 -8 -9 -16 -20 -17c-54 -3 -156 11 -217 60z" />
    <glyph glyph-name="Aacute" unicode="&#xc1;" horiz-adv-x="1005" 
d="M60 426c22 -13 19 -37 52 -50c32 -13 93 -14 164 -10c53 112 106 238 142 315c37 80 99 196 163 192c30 -2 58 -24 71 -56c33 -80 50 -233 62 -364l6 -64c112 -11 179 -43 179 -74c0 -8 -9 -34 -41 -35c-31 0 -29 50 -56 63c-21 10 -48 15 -80 18
c15 -144 29 -257 36 -299c15 -99 39 -145 74 -145c58 0 142 245 158 336c3 18 9 29 19 27c12 -2 8 -26 7 -33c-17 -131 -124 -415 -222 -415c-76 0 -98 82 -117 155c-18 69 -30 228 -43 375c-109 -4 -216 -18 -332 -35c-19 -43 -39 -86 -58 -126
c-68 -142 -146 -255 -217 -281c-55 -20 -98 2 -105 51c-7 47 36 98 81 77c60 -28 91 -8 185 147c20 32 43 76 66 125c-75 -10 -148 -17 -177 -16c-47 2 -95 15 -95 66c0 27 24 63 55 63c7 0 15 -2 23 -7zM460 682c-42 -82 -89 -197 -140 -313c89 7 186 18 261 22
c17 1 34 1 50 1l-9 94c-14 148 -33 317 -73 317c-30 0 -75 -92 -89 -121zM465 960c-16 2 -21 9 -21 15c0 7 7 13 15 16c62 15 126 45 163 93c8 10 17 14 27 14c24 0 49 -26 49 -51c0 -11 -4 -21 -15 -29c-56 -44 -176 -64 -218 -58z" />
    <glyph glyph-name="Acircumflex" unicode="&#xc2;" horiz-adv-x="1005" 
d="M60 426c22 -13 19 -37 52 -50c32 -13 93 -14 164 -10c53 112 106 238 142 315c37 80 99 196 163 192c30 -2 58 -24 71 -56c33 -80 50 -233 62 -364l6 -64c112 -11 179 -43 179 -74c0 -8 -9 -34 -41 -35c-31 0 -29 50 -56 63c-21 10 -48 15 -80 18
c15 -144 29 -257 36 -299c15 -99 39 -145 74 -145c58 0 142 245 158 336c3 18 9 29 19 27c12 -2 8 -26 7 -33c-17 -131 -124 -415 -222 -415c-76 0 -98 82 -117 155c-18 69 -30 228 -43 375c-109 -4 -216 -18 -332 -35c-19 -43 -39 -86 -58 -126
c-68 -142 -146 -255 -217 -281c-55 -20 -98 2 -105 51c-7 47 36 98 81 77c60 -28 91 -8 185 147c20 32 43 76 66 125c-75 -10 -148 -17 -177 -16c-47 2 -95 15 -95 66c0 27 24 63 55 63c7 0 15 -2 23 -7zM460 682c-42 -82 -89 -197 -140 -313c89 7 186 18 261 22
c17 1 34 1 50 1l-9 94c-14 148 -33 317 -73 317c-30 0 -75 -92 -89 -121zM429 943c-11 -2 -16 2 -16 8s6 15 17 20c28 11 93 65 131 116c8 11 19 15 29 15c17 0 33 -12 38 -23c17 -38 69 -140 126 -156c7 -2 11 -7 11 -11c0 -6 -5 -10 -20 -7c-64 10 -136 74 -166 114
c-27 -29 -111 -69 -150 -76z" />
    <glyph glyph-name="Atilde" unicode="&#xc3;" horiz-adv-x="1005" 
d="M60 426c22 -13 19 -37 52 -50c32 -13 93 -14 164 -10c53 112 106 238 142 315c37 80 99 196 163 192c30 -2 58 -24 71 -56c33 -80 50 -233 62 -364l6 -64c112 -11 179 -43 179 -74c0 -8 -9 -34 -41 -35c-31 0 -29 50 -56 63c-21 10 -48 15 -80 18
c15 -144 29 -257 36 -299c15 -99 39 -145 74 -145c58 0 142 245 158 336c3 18 9 29 19 27c12 -2 8 -26 7 -33c-17 -131 -124 -415 -222 -415c-76 0 -98 82 -117 155c-18 69 -30 228 -43 375c-109 -4 -216 -18 -332 -35c-19 -43 -39 -86 -58 -126
c-68 -142 -146 -255 -217 -281c-55 -20 -98 2 -105 51c-7 47 36 98 81 77c60 -28 91 -8 185 147c20 32 43 76 66 125c-75 -10 -148 -17 -177 -16c-47 2 -95 15 -95 66c0 27 24 63 55 63c7 0 15 -2 23 -7zM460 682c-42 -82 -89 -197 -140 -313c89 7 186 18 261 22
c17 1 34 1 50 1l-9 94c-14 148 -33 317 -73 317c-30 0 -75 -92 -89 -121zM457 972c-7 -16 -14 -23 -21 -23s-12 9 -12 22c0 18 14 42 27 61c22 31 53 58 85 58c8 0 15 -1 22 -4c32 -14 76 -70 110 -70c23 0 41 3 77 56c5 7 14 13 20 13c4 0 6 -2 6 -8c0 -3 -1 -7 -1 -11
c-11 -36 -56 -120 -112 -120c-55 0 -100 68 -142 68c-20 0 -47 -10 -59 -42z" />
    <glyph glyph-name="Adieresis" unicode="&#xc4;" horiz-adv-x="1005" 
d="M60 426c22 -13 19 -37 52 -50c32 -13 93 -14 164 -10c53 112 106 238 142 315c37 80 99 196 163 192c30 -2 58 -24 71 -56c33 -80 50 -233 62 -364l6 -64c112 -11 179 -43 179 -74c0 -8 -9 -34 -41 -35c-31 0 -29 50 -56 63c-21 10 -48 15 -80 18
c15 -144 29 -257 36 -299c15 -99 39 -145 74 -145c58 0 142 245 158 336c3 18 9 29 19 27c12 -2 8 -26 7 -33c-17 -131 -124 -415 -222 -415c-76 0 -98 82 -117 155c-18 69 -30 228 -43 375c-109 -4 -216 -18 -332 -35c-19 -43 -39 -86 -58 -126
c-68 -142 -146 -255 -217 -281c-55 -20 -98 2 -105 51c-7 47 36 98 81 77c60 -28 91 -8 185 147c20 32 43 76 66 125c-75 -10 -148 -17 -177 -16c-47 2 -95 15 -95 66c0 27 24 63 55 63c7 0 15 -2 23 -7zM460 682c-42 -82 -89 -197 -140 -313c89 7 186 18 261 22
c17 1 34 1 50 1l-9 94c-14 148 -33 317 -73 317c-30 0 -75 -92 -89 -121zM491 965c-22 0 -50 16 -50 45c0 27 31 59 63 59c28 0 49 -16 49 -50c0 -29 -29 -53 -62 -54zM716 1006c0 -22 -22 -54 -52 -54c-21 0 -51 18 -51 52c0 28 20 57 55 57c27 0 48 -24 48 -55z" />
    <glyph glyph-name="Aring" unicode="&#xc5;" horiz-adv-x="1005" 
d="M471 969c0 41 18 90 63 104c16 26 52 29 84 29c55 0 96 -45 96 -102c0 -62 -42 -118 -100 -138c16 -10 30 -26 38 -45c33 -80 50 -233 62 -364l6 -64c112 -11 179 -43 179 -74c0 -8 -9 -34 -41 -35c-31 0 -29 50 -56 63c-21 10 -48 15 -80 18c15 -144 29 -257 36 -299
c15 -99 39 -145 74 -145c58 0 142 245 158 336c3 18 9 29 19 27c12 -2 8 -26 7 -33c-17 -131 -124 -415 -222 -415c-76 0 -98 82 -117 155c-18 69 -30 228 -43 375c-109 -4 -216 -18 -332 -35c-19 -43 -39 -86 -58 -126c-68 -142 -146 -255 -217 -281c-55 -20 -98 2 -105 51
c-7 47 36 98 81 77c60 -28 91 -8 185 147c20 32 43 76 66 125c-75 -10 -148 -17 -177 -16c-47 2 -95 15 -95 66c0 27 24 63 55 63c7 0 15 -2 23 -7c22 -13 19 -37 52 -50c32 -13 93 -14 164 -10c53 112 106 238 142 315c28 62 72 146 120 178c-44 15 -67 63 -67 110z
M460 682c-42 -82 -89 -197 -140 -313c89 7 186 18 261 22c17 1 34 1 50 1l-9 94c-14 148 -33 317 -73 317c-30 0 -75 -92 -89 -121zM572 887c42 0 61 79 61 116c1 27 -2 70 -32 70c-44 0 -59 -83 -59 -125c0 -36 10 -61 30 -61z" />
    <glyph glyph-name="Ccedilla" unicode="&#xc7;" horiz-adv-x="826" 
d="M659 505c-15 -10 -32 -16 -48 -16c-25 0 -48 12 -55 37c-8 28 5 63 32 78c31 17 74 36 68 102c-5 69 -81 127 -171 127c-237 0 -382 -323 -382 -553c0 -171 60 -382 273 -382c199 0 384 232 451 414c4 12 13 23 18 21c9 -4 5 -32 2 -41c-52 -171 -222 -398 -419 -451
c-40 -13 -73 -48 -79 -71c19 6 44 6 58 4c41 -7 75 -43 77 -87c4 -79 -72 -136 -126 -154c-44 -15 -134 -22 -153 47c-5 19 13 41 24 41c4 0 6 -3 7 -9c2 -46 47 -59 83 -50c48 12 90 60 90 125c0 27 -14 59 -42 59c-9 0 -18 -2 -27 -6c-20 -9 -37 6 -35 24
c1 21 19 47 46 66c-223 0 -349 202 -349 419c0 266 185 618 487 618c131 0 239 -91 239 -225c0 -58 -23 -105 -69 -137z" />
    <glyph glyph-name="Egrave" unicode="&#xc8;" horiz-adv-x="771" 
d="M535 286c0 -27 -27 -43 -54 -43c-25 0 -56 11 -69 13c-133 -3 -319 -133 -319 -284c0 -77 65 -126 152 -126c220 0 440 226 521 428c7 18 18 22 23 21c7 -1 9 -18 5 -29c-81 -229 -325 -484 -591 -484c-136 0 -215 73 -215 169c0 164 218 294 363 330
c-124 0 -331 75 -331 233c3 210 245 354 451 355h18c112 -4 228 -60 228 -195c0 -52 -34 -144 -104 -144c-37 0 -62 22 -62 61c0 14 6 29 17 40c27 28 72 38 76 72v9c-1 83 -70 123 -172 123c-157 0 -353 -158 -353 -331c2 -81 56 -140 128 -172c46 -21 111 -30 160 -30
c16 5 70 23 95 22c21 -1 33 -13 33 -38zM373 1014c-10 9 -15 20 -15 32c0 25 20 52 43 52c6 0 11 -1 17 -5c36 -21 64 -75 177 -107c11 -3 15 -9 15 -15c0 -8 -9 -16 -20 -17c-54 -3 -156 11 -217 60z" />
    <glyph glyph-name="Eacute" unicode="&#xc9;" horiz-adv-x="771" 
d="M535 286c0 -27 -27 -43 -54 -43c-25 0 -56 11 -69 13c-133 -3 -319 -133 -319 -284c0 -77 65 -126 152 -126c220 0 440 226 521 428c7 18 18 22 23 21c7 -1 9 -18 5 -29c-81 -229 -325 -484 -591 -484c-136 0 -215 73 -215 169c0 164 218 294 363 330
c-124 0 -331 75 -331 233c3 210 245 354 451 355h18c112 -4 228 -60 228 -195c0 -52 -34 -144 -104 -144c-37 0 -62 22 -62 61c0 14 6 29 17 40c27 28 72 38 76 72v9c-1 83 -70 123 -172 123c-157 0 -353 -158 -353 -331c2 -81 56 -140 128 -172c46 -21 111 -30 160 -30
c16 5 70 23 95 22c21 -1 33 -13 33 -38zM357 966c-16 2 -21 9 -21 15c0 7 7 13 15 16c62 15 126 45 163 93c8 10 17 14 27 14c24 0 49 -26 49 -51c0 -11 -4 -21 -15 -29c-56 -44 -176 -64 -218 -58z" />
    <glyph glyph-name="Ecircumflex" unicode="&#xca;" horiz-adv-x="771" 
d="M535 286c0 -27 -27 -43 -54 -43c-25 0 -56 11 -69 13c-133 -3 -319 -133 -319 -284c0 -77 65 -126 152 -126c220 0 440 226 521 428c7 18 18 22 23 21c7 -1 9 -18 5 -29c-81 -229 -325 -484 -591 -484c-136 0 -215 73 -215 169c0 164 218 294 363 330
c-124 0 -331 75 -331 233c3 210 245 354 451 355h18c112 -4 228 -60 228 -195c0 -52 -34 -144 -104 -144c-37 0 -62 22 -62 61c0 14 6 29 17 40c27 28 72 38 76 72v9c-1 83 -70 123 -172 123c-157 0 -353 -158 -353 -331c2 -81 56 -140 128 -172c46 -21 111 -30 160 -30
c16 5 70 23 95 22c21 -1 33 -13 33 -38zM295 961c-11 -2 -16 2 -16 8s6 15 17 20c28 11 93 65 131 116c8 11 19 15 29 15c17 0 33 -12 38 -23c17 -38 69 -140 126 -156c7 -2 11 -7 11 -11c0 -6 -5 -10 -20 -7c-64 10 -136 74 -166 114c-27 -29 -111 -69 -150 -76z" />
    <glyph glyph-name="Edieresis" unicode="&#xcb;" horiz-adv-x="771" 
d="M535 286c0 -27 -27 -43 -54 -43c-25 0 -56 11 -69 13c-133 -3 -319 -133 -319 -284c0 -77 65 -126 152 -126c220 0 440 226 521 428c7 18 18 22 23 21c7 -1 9 -18 5 -29c-81 -229 -325 -484 -591 -484c-136 0 -215 73 -215 169c0 164 218 294 363 330
c-124 0 -331 75 -331 233c3 210 245 354 451 355h18c112 -4 228 -60 228 -195c0 -52 -34 -144 -104 -144c-37 0 -62 22 -62 61c0 14 6 29 17 40c27 28 72 38 76 72v9c-1 83 -70 123 -172 123c-157 0 -353 -158 -353 -331c2 -81 56 -140 128 -172c46 -21 111 -30 160 -30
c16 5 70 23 95 22c21 -1 33 -13 33 -38zM362 962c-22 0 -50 16 -50 45c0 27 31 59 63 59c28 0 49 -16 49 -50c0 -29 -29 -53 -62 -54zM585 1020c0 -22 -22 -54 -52 -54c-21 0 -51 18 -51 52c0 28 20 57 55 57c27 0 48 -24 48 -55z" />
    <glyph glyph-name="Igrave" unicode="&#xcc;" horiz-adv-x="901" 
d="M478 689c5 21 21 37 44 35c24 -2 44 -22 38 -56c-18 -104 -46 -245 -55 -348c-10 -113 -21 -291 -15 -346c66 -12 132 -21 201 -27c62 -4 86 13 106 32c15 14 25 18 35 18c18 0 37 -19 37 -36c0 -40 -55 -51 -120 -51c-50 0 -106 7 -261 31c-4 -20 -14 -30 -41 -30
c-32 0 -43 17 -48 45c-92 15 -173 24 -251 18c-87 -7 -85 -34 -107 -58c-17 -19 -37 -24 -50 -24c-33 0 -65 29 -63 65c3 65 85 72 137 72c53 0 122 -7 207 -18c38 -5 81 -12 125 -20c0 135 12 229 25 362c10 103 26 220 56 336zM246 843c22 -24 20 -51 107 -58
c18 -1 37 -2 55 -2c114 1 235 29 392 53c45 7 106 14 157 13c58 -1 104 -14 104 -51c0 -19 -23 -34 -42 -34c-10 0 -21 6 -28 16c-13 19 -35 32 -77 33c-40 0 -80 -5 -122 -11c-109 -17 -222 -42 -315 -54c-81 -10 -148 -17 -200 -18c-57 -1 -96 7 -119 25
c-13 11 -25 25 -25 47c0 33 29 65 64 65c13 0 32 -6 49 -24zM478 989c-10 9 -15 20 -15 32c0 25 20 52 43 52c6 0 11 -1 17 -5c36 -21 64 -75 177 -107c11 -3 15 -9 15 -15c0 -8 -9 -16 -20 -17c-54 -3 -156 11 -217 60z" />
    <glyph glyph-name="Iacute" unicode="&#xcd;" horiz-adv-x="901" 
d="M478 689c5 21 21 37 44 35c24 -2 44 -22 38 -56c-18 -104 -46 -245 -55 -348c-10 -113 -21 -291 -15 -346c66 -12 132 -21 201 -27c62 -4 86 13 106 32c15 14 25 18 35 18c18 0 37 -19 37 -36c0 -40 -55 -51 -120 -51c-50 0 -106 7 -261 31c-4 -20 -14 -30 -41 -30
c-32 0 -43 17 -48 45c-92 15 -173 24 -251 18c-87 -7 -85 -34 -107 -58c-17 -19 -37 -24 -50 -24c-33 0 -65 29 -63 65c3 65 85 72 137 72c53 0 122 -7 207 -18c38 -5 81 -12 125 -20c0 135 12 229 25 362c10 103 26 220 56 336zM246 843c22 -24 20 -51 107 -58
c18 -1 37 -2 55 -2c114 1 235 29 392 53c45 7 106 14 157 13c58 -1 104 -14 104 -51c0 -19 -23 -34 -42 -34c-10 0 -21 6 -28 16c-13 19 -35 32 -77 33c-40 0 -80 -5 -122 -11c-109 -17 -222 -42 -315 -54c-81 -10 -148 -17 -200 -18c-57 -1 -96 7 -119 25
c-13 11 -25 25 -25 47c0 33 29 65 64 65c13 0 32 -6 49 -24zM458 936c-16 2 -21 9 -21 15c0 7 7 13 15 16c62 15 126 45 163 93c8 10 17 14 27 14c24 0 49 -26 49 -51c0 -11 -4 -21 -15 -29c-56 -44 -176 -64 -218 -58z" />
    <glyph glyph-name="Icircumflex" unicode="&#xce;" horiz-adv-x="901" 
d="M478 689c5 21 21 37 44 35c24 -2 44 -22 38 -56c-18 -104 -46 -245 -55 -348c-10 -113 -21 -291 -15 -346c66 -12 132 -21 201 -27c62 -4 86 13 106 32c15 14 25 18 35 18c18 0 37 -19 37 -36c0 -40 -55 -51 -120 -51c-50 0 -106 7 -261 31c-4 -20 -14 -30 -41 -30
c-32 0 -43 17 -48 45c-92 15 -173 24 -251 18c-87 -7 -85 -34 -107 -58c-17 -19 -37 -24 -50 -24c-33 0 -65 29 -63 65c3 65 85 72 137 72c53 0 122 -7 207 -18c38 -5 81 -12 125 -20c0 135 12 229 25 362c10 103 26 220 56 336zM246 843c22 -24 20 -51 107 -58
c18 -1 37 -2 55 -2c114 1 235 29 392 53c45 7 106 14 157 13c58 -1 104 -14 104 -51c0 -19 -23 -34 -42 -34c-10 0 -21 6 -28 16c-13 19 -35 32 -77 33c-40 0 -80 -5 -122 -11c-109 -17 -222 -42 -315 -54c-81 -10 -148 -17 -200 -18c-57 -1 -96 7 -119 25
c-13 11 -25 25 -25 47c0 33 29 65 64 65c13 0 32 -6 49 -24zM417 926c-11 -2 -16 2 -16 8s6 15 17 20c28 11 93 65 131 116c8 11 19 15 29 15c17 0 33 -12 38 -23c17 -38 69 -140 126 -156c7 -2 11 -7 11 -11c0 -6 -5 -10 -20 -7c-64 10 -136 74 -166 114
c-27 -29 -111 -69 -150 -76z" />
    <glyph glyph-name="Idieresis" unicode="&#xcf;" horiz-adv-x="901" 
d="M478 689c5 21 21 37 44 35c24 -2 44 -22 38 -56c-18 -104 -46 -245 -55 -348c-10 -113 -21 -291 -15 -346c66 -12 132 -21 201 -27c62 -4 86 13 106 32c15 14 25 18 35 18c18 0 37 -19 37 -36c0 -40 -55 -51 -120 -51c-50 0 -106 7 -261 31c-4 -20 -14 -30 -41 -30
c-32 0 -43 17 -48 45c-92 15 -173 24 -251 18c-87 -7 -85 -34 -107 -58c-17 -19 -37 -24 -50 -24c-33 0 -65 29 -63 65c3 65 85 72 137 72c53 0 122 -7 207 -18c38 -5 81 -12 125 -20c0 135 12 229 25 362c10 103 26 220 56 336zM246 843c22 -24 20 -51 107 -58
c18 -1 37 -2 55 -2c114 1 235 29 392 53c45 7 106 14 157 13c58 -1 104 -14 104 -51c0 -19 -23 -34 -42 -34c-10 0 -21 6 -28 16c-13 19 -35 32 -77 33c-40 0 -80 -5 -122 -11c-109 -17 -222 -42 -315 -54c-81 -10 -148 -17 -200 -18c-57 -1 -96 7 -119 25
c-13 11 -25 25 -25 47c0 33 29 65 64 65c13 0 32 -6 49 -24zM497 932c-22 0 -50 16 -50 45c0 27 31 59 63 59c28 0 49 -16 49 -50c0 -29 -29 -53 -62 -54zM721 1000c0 -22 -22 -54 -52 -54c-21 0 -51 18 -51 52c0 28 20 57 55 57c27 0 48 -24 48 -55z" />
    <glyph glyph-name="Ntilde" unicode="&#xd1;" horiz-adv-x="939" 
d="M126 -6c-3 -25 -12 -60 -49 -60c-70 1 -59 114 -57 151c3 81 26 188 50 289c16 68 41 137 41 214c0 38 -6 70 -19 86c-17 22 -48 24 -73 27c-31 4 -48 24 -48 49c0 37 32 66 70 66c91 0 113 -109 113 -186c0 -32 -1 -70 -8 -131c-9 -85 -17 -171 -27 -287
c47 123 106 250 166 356c57 100 176 290 305 290c146 0 118 -244 105 -512c-10 -207 -11 -399 64 -399c67 0 156 278 177 346c6 18 12 19 17 18c7 -1 9 -14 6 -27c-12 -63 -105 -413 -243 -413c-134 0 -126 241 -113 477c13 243 38 454 -46 454c-55 0 -141 -88 -230 -242
c-42 -73 -100 -190 -146 -333c-29 -91 -47 -169 -55 -233zM273 952c-7 -16 -14 -23 -21 -23s-12 9 -12 22c0 18 14 42 27 61c22 31 53 58 85 58c8 0 15 -1 22 -4c32 -14 76 -70 110 -70c23 0 41 3 77 56c5 7 14 13 20 13c4 0 6 -2 6 -8c0 -3 -1 -7 -1 -11
c-11 -36 -56 -120 -112 -120c-55 0 -100 68 -142 68c-20 0 -47 -10 -59 -42z" />
    <glyph glyph-name="Ograve" unicode="&#xd2;" horiz-adv-x="889" 
d="M113 615c60 89 172 182 252 185c46 43 110 69 176 69c140 0 256 -132 287 -315c52 38 90 88 91 147c0 34 -18 59 -18 81c0 24 14 48 47 48s48 -28 48 -61c0 -9 -1 -18 -3 -26c-23 -89 -82 -167 -161 -222c3 -21 4 -43 4 -65c0 -333 -208 -609 -495 -609
c-201 0 -338 165 -338 411c0 132 44 260 110 357zM571 469c61 0 147 21 217 60c-19 156 -104 294 -237 294c-87 0 -159 -84 -159 -176c0 -82 61 -178 179 -178zM556 434c-127 0 -259 63 -259 212c0 36 9 69 25 99c-138 -83 -225 -289 -225 -468c0 -165 88 -369 284 -369
c224 0 412 243 412 552c0 12 0 24 -1 36c-70 -39 -151 -62 -236 -62zM422 1013c-10 9 -15 20 -15 32c0 25 20 52 43 52c6 0 11 -1 17 -5c36 -21 64 -75 177 -107c11 -3 15 -9 15 -15c0 -8 -9 -16 -20 -17c-54 -3 -156 11 -217 60z" />
    <glyph glyph-name="Oacute" unicode="&#xd3;" horiz-adv-x="889" 
d="M113 615c60 89 172 182 252 185c46 43 110 69 176 69c140 0 256 -132 287 -315c52 38 90 88 91 147c0 34 -18 59 -18 81c0 24 14 48 47 48s48 -28 48 -61c0 -9 -1 -18 -3 -26c-23 -89 -82 -167 -161 -222c3 -21 4 -43 4 -65c0 -333 -208 -609 -495 -609
c-201 0 -338 165 -338 411c0 132 44 260 110 357zM571 469c61 0 147 21 217 60c-19 156 -104 294 -237 294c-87 0 -159 -84 -159 -176c0 -82 61 -178 179 -178zM556 434c-127 0 -259 63 -259 212c0 36 9 69 25 99c-138 -83 -225 -289 -225 -468c0 -165 88 -369 284 -369
c224 0 412 243 412 552c0 12 0 24 -1 36c-70 -39 -151 -62 -236 -62zM425 951c-16 2 -21 9 -21 15c0 7 7 13 15 16c62 15 126 45 163 93c8 10 17 14 27 14c24 0 49 -26 49 -51c0 -11 -4 -21 -15 -29c-56 -44 -176 -64 -218 -58z" />
    <glyph glyph-name="Ocircumflex" unicode="&#xd4;" horiz-adv-x="889" 
d="M113 615c60 89 172 182 252 185c46 43 110 69 176 69c140 0 256 -132 287 -315c52 38 90 88 91 147c0 34 -18 59 -18 81c0 24 14 48 47 48s48 -28 48 -61c0 -9 -1 -18 -3 -26c-23 -89 -82 -167 -161 -222c3 -21 4 -43 4 -65c0 -333 -208 -609 -495 -609
c-201 0 -338 165 -338 411c0 132 44 260 110 357zM571 469c61 0 147 21 217 60c-19 156 -104 294 -237 294c-87 0 -159 -84 -159 -176c0 -82 61 -178 179 -178zM556 434c-127 0 -259 63 -259 212c0 36 9 69 25 99c-138 -83 -225 -289 -225 -468c0 -165 88 -369 284 -369
c224 0 412 243 412 552c0 12 0 24 -1 36c-70 -39 -151 -62 -236 -62zM386 954c-11 -2 -16 2 -16 8s6 15 17 20c28 11 93 65 131 116c8 11 19 15 29 15c17 0 33 -12 38 -23c17 -38 69 -140 126 -156c7 -2 11 -7 11 -11c0 -6 -5 -10 -20 -7c-64 10 -136 74 -166 114
c-27 -29 -111 -69 -150 -76z" />
    <glyph glyph-name="Otilde" unicode="&#xd5;" horiz-adv-x="889" 
d="M113 615c60 89 172 182 252 185c46 43 110 69 176 69c140 0 256 -132 287 -315c52 38 90 88 91 147c0 34 -18 59 -18 81c0 24 14 48 47 48s48 -28 48 -61c0 -9 -1 -18 -3 -26c-23 -89 -82 -167 -161 -222c3 -21 4 -43 4 -65c0 -333 -208 -609 -495 -609
c-201 0 -338 165 -338 411c0 132 44 260 110 357zM571 469c61 0 147 21 217 60c-19 156 -104 294 -237 294c-87 0 -159 -84 -159 -176c0 -82 61 -178 179 -178zM556 434c-127 0 -259 63 -259 212c0 36 9 69 25 99c-138 -83 -225 -289 -225 -468c0 -165 88 -369 284 -369
c224 0 412 243 412 552c0 12 0 24 -1 36c-70 -39 -151 -62 -236 -62zM423 971c-7 -16 -14 -23 -21 -23s-12 9 -12 22c0 18 14 42 27 61c22 31 53 58 85 58c8 0 15 -1 22 -4c32 -14 76 -70 110 -70c23 0 41 3 77 56c5 7 14 13 20 13c4 0 6 -2 6 -8c0 -3 -1 -7 -1 -11
c-11 -36 -56 -120 -112 -120c-55 0 -100 68 -142 68c-20 0 -47 -10 -59 -42z" />
    <glyph glyph-name="Odieresis" unicode="&#xd6;" horiz-adv-x="889" 
d="M113 615c60 89 172 182 252 185c46 43 110 69 176 69c140 0 256 -132 287 -315c52 38 90 88 91 147c0 34 -18 59 -18 81c0 24 14 48 47 48s48 -28 48 -61c0 -9 -1 -18 -3 -26c-23 -89 -82 -167 -161 -222c3 -21 4 -43 4 -65c0 -333 -208 -609 -495 -609
c-201 0 -338 165 -338 411c0 132 44 260 110 357zM571 469c61 0 147 21 217 60c-19 156 -104 294 -237 294c-87 0 -159 -84 -159 -176c0 -82 61 -178 179 -178zM556 434c-127 0 -259 63 -259 212c0 36 9 69 25 99c-138 -83 -225 -289 -225 -468c0 -165 88 -369 284 -369
c224 0 412 243 412 552c0 12 0 24 -1 36c-70 -39 -151 -62 -236 -62zM442 941c-22 0 -50 16 -50 45c0 27 31 59 63 59c28 0 49 -16 49 -50c0 -29 -29 -53 -62 -54zM665 999c0 -22 -22 -54 -52 -54c-21 0 -51 18 -51 52c0 28 20 57 55 57c27 0 48 -24 48 -55z" />
    <glyph glyph-name="Oslash" unicode="&#xd8;" horiz-adv-x="889" 
d="M113 615c60 89 172 182 252 185c46 43 110 69 176 69c50 0 98 -18 139 -48c21 33 38 59 49 73c13 16 29 21 37 15c7 -5 10 -20 -7 -42c-15 -20 -32 -45 -49 -72c58 -56 101 -141 118 -241c52 38 90 88 91 147c0 34 -18 59 -18 81c0 24 14 48 47 48s48 -28 48 -61
c0 -9 -1 -18 -3 -26c-23 -89 -82 -167 -161 -222c3 -21 4 -43 4 -65c0 -333 -208 -609 -495 -609c-25 0 -49 3 -72 8c-15 -44 -27 -80 -32 -103c-5 -20 -21 -32 -36 -28c-21 6 -12 39 -8 54c5 23 16 54 29 91c-134 52 -219 195 -219 389c0 132 44 260 110 357zM556 434
c-14 0 -28 1 -42 2c-36 -73 -68 -140 -89 -188c-33 -72 -88 -209 -131 -324c26 -10 55 -16 87 -16c224 0 412 243 412 552c0 12 0 24 -1 36c-70 -39 -151 -62 -236 -62zM446 400c4 9 13 26 23 44c-94 24 -172 87 -172 202c0 36 9 69 25 99c-138 -83 -225 -289 -225 -468
c0 -123 48 -266 153 -332c59 152 146 351 196 455zM491 486c46 86 115 210 169 301c-32 23 -68 36 -109 36c-87 0 -159 -84 -159 -176c0 -61 33 -129 99 -161zM571 469c61 0 147 21 217 60c-11 92 -45 177 -99 232c-51 -85 -107 -190 -157 -288c12 -3 25 -4 39 -4z" />
    <glyph glyph-name="Ugrave" unicode="&#xd9;" horiz-adv-x="1014" 
d="M75 824c77 -16 88 -164 83 -221c-14 -153 -61 -305 -61 -471c1 -109 38 -220 129 -220c154 0 254 297 330 506c61 166 97 330 165 330c48 -1 62 -67 63 -129c1 -78 1 -192 1 -277c0 -169 23 -302 72 -302c43 0 104 113 153 255c3 9 11 15 17 14s10 -8 6 -24
c-20 -83 -111 -326 -222 -326c-110 0 -117 230 -117 392c0 125 16 300 -2 300c-22 0 -54 -137 -139 -365c-56 -150 -182 -455 -370 -455c-113 0 -168 86 -170 235c0 205 111 416 101 532c-4 70 -32 83 -55 95c-17 8 -55 22 -61 47c-11 43 34 93 77 84zM318 917
c-10 9 -15 20 -15 32c0 25 20 52 43 52c6 0 11 -1 17 -5c36 -21 64 -75 177 -107c11 -3 15 -9 15 -15c0 -8 -9 -16 -20 -17c-54 -3 -156 11 -217 60z" />
    <glyph glyph-name="Uacute" unicode="&#xda;" horiz-adv-x="1014" 
d="M75 824c77 -16 88 -164 83 -221c-14 -153 -61 -305 -61 -471c1 -109 38 -220 129 -220c154 0 254 297 330 506c61 166 97 330 165 330c48 -1 62 -67 63 -129c1 -78 1 -192 1 -277c0 -169 23 -302 72 -302c43 0 104 113 153 255c3 9 11 15 17 14s10 -8 6 -24
c-20 -83 -111 -326 -222 -326c-110 0 -117 230 -117 392c0 125 16 300 -2 300c-22 0 -54 -137 -139 -365c-56 -150 -182 -455 -370 -455c-113 0 -168 86 -170 235c0 205 111 416 101 532c-4 70 -32 83 -55 95c-17 8 -55 22 -61 47c-11 43 34 93 77 84zM334 854
c-16 2 -21 9 -21 15c0 7 7 13 15 16c62 15 126 45 163 93c8 10 17 14 27 14c24 0 49 -26 49 -51c0 -11 -4 -21 -15 -29c-56 -44 -176 -64 -218 -58z" />
    <glyph glyph-name="Ucircumflex" unicode="&#xdb;" horiz-adv-x="1014" 
d="M75 824c77 -16 88 -164 83 -221c-14 -153 -61 -305 -61 -471c1 -109 38 -220 129 -220c154 0 254 297 330 506c61 166 97 330 165 330c48 -1 62 -67 63 -129c1 -78 1 -192 1 -277c0 -169 23 -302 72 -302c43 0 104 113 153 255c3 9 11 15 17 14s10 -8 6 -24
c-20 -83 -111 -326 -222 -326c-110 0 -117 230 -117 392c0 125 16 300 -2 300c-22 0 -54 -137 -139 -365c-56 -150 -182 -455 -370 -455c-113 0 -168 86 -170 235c0 205 111 416 101 532c-4 70 -32 83 -55 95c-17 8 -55 22 -61 47c-11 43 34 93 77 84zM287 894
c-11 -2 -16 2 -16 8s6 15 17 20c28 11 93 65 131 116c8 11 19 15 29 15c17 0 33 -12 38 -23c17 -38 69 -140 126 -156c7 -2 11 -7 11 -11c0 -6 -5 -10 -20 -7c-64 10 -136 74 -166 114c-27 -29 -111 -69 -150 -76z" />
    <glyph glyph-name="Udieresis" unicode="&#xdc;" horiz-adv-x="1014" 
d="M75 824c77 -16 88 -164 83 -221c-14 -153 -61 -305 -61 -471c1 -109 38 -220 129 -220c154 0 254 297 330 506c61 166 97 330 165 330c48 -1 62 -67 63 -129c1 -78 1 -192 1 -277c0 -169 23 -302 72 -302c43 0 104 113 153 255c3 9 11 15 17 14s10 -8 6 -24
c-20 -83 -111 -326 -222 -326c-110 0 -117 230 -117 392c0 125 16 300 -2 300c-22 0 -54 -137 -139 -365c-56 -150 -182 -455 -370 -455c-113 0 -168 86 -170 235c0 205 111 416 101 532c-4 70 -32 83 -55 95c-17 8 -55 22 -61 47c-11 43 34 93 77 84zM354 850
c-22 0 -50 16 -50 45c0 27 31 59 63 59c28 0 49 -16 49 -50c0 -29 -29 -53 -62 -54zM591 918c0 -22 -22 -54 -52 -54c-21 0 -51 18 -51 52c0 28 20 57 55 57c27 0 48 -24 48 -55z" />
    <glyph glyph-name="Yacute" unicode="&#xdd;" horiz-adv-x="927" 
d="M37 709c-21 12 -25 27 -25 45c1 33 34 57 67 58c65 1 86 -75 86 -134c0 -90 -45 -274 -45 -418c0 -84 25 -152 89 -150c188 4 379 507 429 644c18 50 40 62 62 62c90 2 87 -217 89 -459c0 -48 -1 -110 -7 -177c68 37 119 72 141 110c11 19 25 24 33 18
c7 -5 10 -18 -2 -35c-36 -51 -99 -93 -176 -135c-28 -272 -129 -627 -384 -631c-117 -2 -194 70 -194 192c0 150 142 261 285 334c71 37 140 69 202 99c7 63 11 120 13 160c9 228 -1 428 -29 428c-11 0 -50 -115 -85 -197c-93 -214 -236 -469 -400 -472
c-93 -2 -155 60 -155 178c0 119 86 324 86 399c0 63 -54 67 -80 81zM392 -449c175 5 256 307 289 538c-61 -30 -127 -62 -194 -98c-112 -62 -236 -155 -236 -295c0 -78 57 -147 141 -145zM312 889c-16 2 -21 9 -21 15c0 7 7 13 15 16c62 15 126 45 163 93c8 10 17 14 27 14
c24 0 49 -26 49 -51c0 -11 -4 -21 -15 -29c-56 -44 -176 -64 -218 -58z" />
    <glyph glyph-name="Ydieresis" unicode="&#x178;" horiz-adv-x="927" 
d="M37 709c-21 12 -25 27 -25 45c1 33 34 57 67 58c65 1 86 -75 86 -134c0 -90 -45 -274 -45 -418c0 -84 25 -152 89 -150c188 4 379 507 429 644c18 50 40 62 62 62c90 2 87 -217 89 -459c0 -48 -1 -110 -7 -177c68 37 119 72 141 110c11 19 25 24 33 18
c7 -5 10 -18 -2 -35c-36 -51 -99 -93 -176 -135c-28 -272 -129 -627 -384 -631c-117 -2 -194 70 -194 192c0 150 142 261 285 334c71 37 140 69 202 99c7 63 11 120 13 160c9 228 -1 428 -29 428c-11 0 -50 -115 -85 -197c-93 -214 -236 -469 -400 -472
c-93 -2 -155 60 -155 178c0 119 86 324 86 399c0 63 -54 67 -80 81zM392 -449c175 5 256 307 289 538c-61 -30 -127 -62 -194 -98c-112 -62 -236 -155 -236 -295c0 -78 57 -147 141 -145zM313 877c-22 0 -50 16 -50 45c0 27 31 59 63 59c28 0 49 -16 49 -50
c0 -29 -29 -53 -62 -54zM536 935c0 -22 -22 -54 -52 -54c-21 0 -51 18 -51 52c0 28 20 57 55 57c27 0 48 -24 48 -55z" />
    <glyph glyph-name="agrave" unicode="&#xe0;" horiz-adv-x="520" 
d="M516 297c6 16 13 22 18 22c6 0 9 -9 6 -23c-11 -51 -75 -260 -157 -260c-68 0 -93 122 -100 215c-23 -118 -80 -295 -192 -294c-92 1 -127 114 -122 208c5 107 48 247 150 296c22 11 44 15 65 15c41 -1 77 -24 99 -58c8 11 24 19 38 19c16 0 31 -11 30 -38
c0 -30 10 -285 62 -285c36 0 94 157 103 183zM120 25c74 0 125 187 139 298c-3 14 -6 32 -11 52c-8 31 -24 62 -57 63c-90 1 -130 -169 -134 -252c-2 -47 -4 -161 63 -161zM105 646c-10 9 -15 20 -15 32c0 25 20 52 43 52c6 0 11 -1 17 -5c36 -21 64 -75 177 -107
c11 -3 15 -9 15 -15c0 -8 -9 -16 -20 -17c-54 -3 -156 11 -217 60z" />
    <glyph glyph-name="aacute" unicode="&#xe1;" horiz-adv-x="520" 
d="M516 297c6 16 13 22 18 22c6 0 9 -9 6 -23c-11 -51 -75 -260 -157 -260c-68 0 -93 122 -100 215c-23 -118 -80 -295 -192 -294c-92 1 -127 114 -122 208c5 107 48 247 150 296c22 11 44 15 65 15c41 -1 77 -24 99 -58c8 11 24 19 38 19c16 0 31 -11 30 -38
c0 -30 10 -285 62 -285c36 0 94 157 103 183zM120 25c74 0 125 187 139 298c-3 14 -6 32 -11 52c-8 31 -24 62 -57 63c-90 1 -130 -169 -134 -252c-2 -47 -4 -161 63 -161zM88 578c-16 2 -21 9 -21 15c0 7 7 13 15 16c62 15 126 45 163 93c8 10 17 14 27 14
c24 0 49 -26 49 -51c0 -11 -4 -21 -15 -29c-56 -44 -176 -64 -218 -58z" />
    <glyph glyph-name="acircumflex" unicode="&#xe2;" horiz-adv-x="520" 
d="M516 297c6 16 13 22 18 22c6 0 9 -9 6 -23c-11 -51 -75 -260 -157 -260c-68 0 -93 122 -100 215c-23 -118 -80 -295 -192 -294c-92 1 -127 114 -122 208c5 107 48 247 150 296c22 11 44 15 65 15c41 -1 77 -24 99 -58c8 11 24 19 38 19c16 0 31 -11 30 -38
c0 -30 10 -285 62 -285c36 0 94 157 103 183zM120 25c74 0 125 187 139 298c-3 14 -6 32 -11 52c-8 31 -24 62 -57 63c-90 1 -130 -169 -134 -252c-2 -47 -4 -161 63 -161zM48 560c-11 -2 -16 2 -16 8s6 15 17 20c28 11 93 65 131 116c8 11 19 15 29 15c17 0 33 -12 38 -23
c17 -38 69 -140 126 -156c7 -2 11 -7 11 -11c0 -6 -5 -10 -20 -7c-64 10 -136 74 -166 114c-27 -29 -111 -69 -150 -76z" />
    <glyph glyph-name="atilde" unicode="&#xe3;" horiz-adv-x="520" 
d="M516 297c6 16 13 22 18 22c6 0 9 -9 6 -23c-11 -51 -75 -260 -157 -260c-68 0 -93 122 -100 215c-23 -118 -80 -295 -192 -294c-92 1 -127 114 -122 208c5 107 48 247 150 296c22 11 44 15 65 15c41 -1 77 -24 99 -58c8 11 24 19 38 19c16 0 31 -11 30 -38
c0 -30 10 -285 62 -285c36 0 94 157 103 183zM120 25c74 0 125 187 139 298c-3 14 -6 32 -11 52c-8 31 -24 62 -57 63c-90 1 -130 -169 -134 -252c-2 -47 -4 -161 63 -161zM72 588c-7 -16 -14 -23 -21 -23s-12 9 -12 22c0 18 14 42 27 61c22 31 53 58 85 58c8 0 15 -1 22 -4
c32 -14 76 -70 110 -70c23 0 41 3 77 56c5 7 14 13 20 13c4 0 6 -2 6 -8c0 -3 -1 -7 -1 -11c-11 -36 -56 -120 -112 -120c-55 0 -100 68 -142 68c-20 0 -47 -10 -59 -42z" />
    <glyph glyph-name="adieresis" unicode="&#xe4;" horiz-adv-x="520" 
d="M516 297c6 16 13 22 18 22c6 0 9 -9 6 -23c-11 -51 -75 -260 -157 -260c-68 0 -93 122 -100 215c-23 -118 -80 -295 -192 -294c-92 1 -127 114 -122 208c5 107 48 247 150 296c22 11 44 15 65 15c41 -1 77 -24 99 -58c8 11 24 19 38 19c16 0 31 -11 30 -38
c0 -30 10 -285 62 -285c36 0 94 157 103 183zM120 25c74 0 125 187 139 298c-3 14 -6 32 -11 52c-8 31 -24 62 -57 63c-90 1 -130 -169 -134 -252c-2 -47 -4 -161 63 -161zM96 585c-22 0 -50 16 -50 45c0 27 31 59 63 59c28 0 49 -16 49 -50c0 -29 -29 -53 -62 -54zM326 650
c0 -22 -22 -54 -52 -54c-21 0 -51 18 -51 52c0 28 20 57 55 57c27 0 48 -24 48 -55z" />
    <glyph glyph-name="aring" unicode="&#xe5;" horiz-adv-x="520" 
d="M65 587c0 41 18 90 63 104c16 26 52 29 84 29c55 0 96 -45 96 -102c0 -68 -51 -129 -119 -142c39 -3 73 -26 94 -58c8 11 24 19 38 19c16 0 31 -11 30 -38c0 -30 10 -285 62 -285c36 0 94 157 103 183c6 16 13 22 18 22c6 0 9 -9 6 -23c-11 -51 -75 -260 -157 -260
c-68 0 -93 122 -100 215c-23 -118 -80 -295 -192 -294c-92 1 -127 114 -122 208c5 107 48 247 150 296c11 6 23 9 34 12c-58 5 -88 60 -88 114zM120 25c74 0 125 187 139 298c-3 14 -6 32 -11 52c-8 31 -24 62 -57 63c-90 1 -130 -169 -134 -252c-2 -47 -4 -161 63 -161z
M166 505c42 0 61 79 61 116c0 27 -2 70 -32 70c-44 0 -59 -83 -59 -125c0 -36 10 -61 30 -61z" />
    <glyph glyph-name="ccedilla" unicode="&#xe7;" horiz-adv-x="418" 
d="M333 360c0 -35 -24 -78 -67 -74c-29 3 -40 19 -41 40c-1 39 31 42 36 63c9 41 -16 67 -49 67c-71 0 -158 -148 -159 -295c0 -71 25 -143 91 -143c58 0 124 43 175 108c35 45 66 103 86 141c3 6 10 9 15 7c6 -2 10 -7 7 -16c-38 -107 -137 -244 -242 -291
c-27 -15 -54 -33 -65 -65c19 6 44 6 58 4c41 -7 75 -43 77 -87c4 -79 -72 -136 -126 -154c-44 -15 -134 -22 -153 47c-5 19 13 41 24 41c4 0 6 -3 7 -9c2 -46 47 -59 83 -50c48 12 90 60 90 125c0 27 -14 59 -42 59c-9 0 -18 -2 -27 -6c-20 -9 -37 6 -35 24
c1 17 12 36 30 53c-91 3 -143 86 -141 196c4 161 102 342 247 342c72 0 122 -58 121 -127z" />
    <glyph glyph-name="egrave" unicode="&#xe8;" horiz-adv-x="397" 
d="M129 396c-23 -38 -45 -85 -58 -134c46 5 97 19 130 70c18 28 33 63 33 90c0 19 -10 42 -35 40c-23 -2 -51 -35 -70 -66zM71 223h-8c-7 -39 -8 -79 -2 -115c12 -73 66 -109 123 -91c54 17 158 95 200 257c5 19 12 27 18 27c7 -1 12 -11 9 -27c-16 -90 -66 -179 -130 -242
c-41 -41 -101 -86 -165 -83c-49 2 -90 32 -116 74c-20 32 -32 71 -32 142c4 86 29 164 89 238c33 41 92 88 152 88c35 0 70 -15 82 -49c4 -12 6 -25 6 -37c0 -23 -8 -44 -17 -61c-38 -68 -164 -121 -209 -121zM85 641c-10 9 -15 20 -15 32c0 25 20 52 43 52c6 0 11 -1 17 -5
c36 -21 64 -75 177 -107c11 -3 15 -9 15 -15c0 -8 -9 -16 -20 -17c-54 -3 -156 11 -217 60z" />
    <glyph glyph-name="eacute" unicode="&#xe9;" horiz-adv-x="397" 
d="M129 396c-23 -38 -45 -85 -58 -134c46 5 97 19 130 70c18 28 33 63 33 90c0 19 -10 42 -35 40c-23 -2 -51 -35 -70 -66zM71 223h-8c-7 -39 -8 -79 -2 -115c12 -73 66 -109 123 -91c54 17 158 95 200 257c5 19 12 27 18 27c7 -1 12 -11 9 -27c-16 -90 -66 -179 -130 -242
c-41 -41 -101 -86 -165 -83c-49 2 -90 32 -116 74c-20 32 -32 71 -32 142c4 86 29 164 89 238c33 41 92 88 152 88c35 0 70 -15 82 -49c4 -12 6 -25 6 -37c0 -23 -8 -44 -17 -61c-38 -68 -164 -121 -209 -121zM93 596c-16 2 -21 9 -21 15c0 7 7 13 15 16
c62 15 126 45 163 93c8 10 17 14 27 14c24 0 49 -26 49 -51c0 -11 -4 -21 -15 -29c-56 -44 -176 -64 -218 -58z" />
    <glyph glyph-name="ecircumflex" unicode="&#xea;" horiz-adv-x="397" 
d="M129 396c-23 -38 -45 -85 -58 -134c46 5 97 19 130 70c18 28 33 63 33 90c0 19 -10 42 -35 40c-23 -2 -51 -35 -70 -66zM71 223h-8c-7 -39 -8 -79 -2 -115c12 -73 66 -109 123 -91c54 17 158 95 200 257c5 19 12 27 18 27c7 -1 12 -11 9 -27c-16 -90 -66 -179 -130 -242
c-41 -41 -101 -86 -165 -83c-49 2 -90 32 -116 74c-20 32 -32 71 -32 142c4 86 29 164 89 238c33 41 92 88 152 88c35 0 70 -15 82 -49c4 -12 6 -25 6 -37c0 -23 -8 -44 -17 -61c-38 -68 -164 -121 -209 -121zM42 576c-11 -2 -16 2 -16 8s6 15 17 20c28 11 93 65 131 116
c8 11 19 15 29 15c17 0 33 -12 38 -23c17 -38 69 -140 126 -156c7 -2 11 -7 11 -11c0 -6 -5 -10 -20 -7c-64 10 -136 74 -166 114c-27 -29 -111 -69 -150 -76z" />
    <glyph glyph-name="edieresis" unicode="&#xeb;" horiz-adv-x="397" 
d="M129 396c-23 -38 -45 -85 -58 -134c46 5 97 19 130 70c18 28 33 63 33 90c0 19 -10 42 -35 40c-23 -2 -51 -35 -70 -66zM71 223h-8c-7 -39 -8 -79 -2 -115c12 -73 66 -109 123 -91c54 17 158 95 200 257c5 19 12 27 18 27c7 -1 12 -11 9 -27c-16 -90 -66 -179 -130 -242
c-41 -41 -101 -86 -165 -83c-49 2 -90 32 -116 74c-20 32 -32 71 -32 142c4 86 29 164 89 238c33 41 92 88 152 88c35 0 70 -15 82 -49c4 -12 6 -25 6 -37c0 -23 -8 -44 -17 -61c-38 -68 -164 -121 -209 -121zM113 615c-22 0 -50 16 -50 45c0 27 31 59 63 59
c28 0 49 -16 49 -50c0 -29 -29 -53 -62 -54zM335 664c0 -22 -22 -54 -52 -54c-21 0 -51 18 -51 52c0 28 20 57 55 57c27 0 48 -24 48 -55z" />
    <glyph glyph-name="igrave" unicode="&#xec;" horiz-adv-x="258" 
d="M91 380c-20 -81 -44 -346 34 -339c53 5 110 168 126 244c3 13 9 16 14 15c6 -2 9 -10 7 -24c-14 -105 -74 -290 -167 -303c-163 -21 -119 337 -97 420c6 23 21 33 38 34c25 1 52 -20 45 -47zM-30 657c-10 9 -15 20 -15 32c0 25 20 52 43 52c6 0 11 -1 17 -5
c36 -21 64 -75 177 -107c11 -3 15 -9 15 -15c0 -8 -9 -16 -20 -17c-54 -3 -156 11 -217 60z" />
    <glyph glyph-name="iacute" unicode="&#xed;" horiz-adv-x="258" 
d="M91 380c-20 -81 -44 -346 34 -339c53 5 110 168 126 244c3 13 9 16 14 15c6 -2 9 -10 7 -24c-14 -105 -74 -290 -167 -303c-163 -21 -119 337 -97 420c6 23 21 33 38 34c25 1 52 -20 45 -47zM-19 602c-16 2 -21 9 -21 15c0 7 7 13 15 16c62 15 126 45 163 93
c8 10 17 14 27 14c24 0 49 -26 49 -51c0 -11 -4 -21 -15 -29c-56 -44 -176 -64 -218 -58z" />
    <glyph glyph-name="icircumflex" unicode="&#xee;" horiz-adv-x="258" 
d="M91 380c-20 -81 -44 -346 34 -339c53 5 110 168 126 244c3 13 9 16 14 15c6 -2 9 -10 7 -24c-14 -105 -74 -290 -167 -303c-163 -21 -119 337 -97 420c6 23 21 33 38 34c25 1 52 -20 45 -47zM-80 581c-11 -2 -16 2 -16 8s6 15 17 20c28 11 93 65 131 116
c8 11 19 15 29 15c17 0 33 -12 38 -23c17 -38 69 -140 126 -156c7 -2 11 -7 11 -11c0 -6 -5 -10 -20 -7c-64 10 -136 74 -166 114c-27 -29 -111 -69 -150 -76z" />
    <glyph glyph-name="idieresis" unicode="&#xef;" horiz-adv-x="258" 
d="M91 380c-20 -81 -44 -346 34 -339c53 5 110 168 126 244c3 13 9 16 14 15c6 -2 9 -10 7 -24c-14 -105 -74 -290 -167 -303c-163 -21 -119 337 -97 420c6 23 21 33 38 34c25 1 52 -20 45 -47zM-9 620c-22 0 -50 16 -50 45c0 27 31 59 63 59c28 0 49 -16 49 -50
c0 -29 -29 -53 -62 -54zM214 667c0 -22 -22 -54 -52 -54c-21 0 -51 18 -51 52c0 28 20 57 55 57c27 0 48 -24 48 -55z" />
    <glyph glyph-name="ntilde" unicode="&#xf1;" horiz-adv-x="570" 
d="M2 54c-15 117 -16 234 -14 357c0 23 19 42 43 42c22 0 40 -18 39 -38c-3 -80 -1 -328 18 -328c10 23 55 153 98 251c15 34 55 102 93 102c47 0 64 -56 75 -99c27 -103 48 -255 96 -255c38 0 84 129 107 188c5 12 11 22 21 18c6 -3 5 -15 1 -33
c-13 -54 -69 -245 -165 -245c-122 2 -134 358 -163 358c-21 0 -78 -162 -114 -271c-24 -73 -35 -123 -62 -133s-47 0 -58 26c-8 19 -13 45 -15 60zM69 596c-7 -16 -14 -23 -21 -23s-12 9 -12 22c0 18 14 42 27 61c22 31 53 58 85 58c8 0 15 -1 22 -4c32 -14 76 -70 110 -70
c23 0 41 3 77 56c5 7 14 13 20 13c4 0 6 -2 6 -8c0 -3 -1 -7 -1 -11c-11 -36 -56 -120 -112 -120c-55 0 -100 68 -142 68c-20 0 -47 -10 -59 -42z" />
    <glyph glyph-name="ograve" unicode="&#xf2;" horiz-adv-x="463" 
d="M117 425c4 1 13 3 21 3c20 38 66 64 107 64c92 0 131 -100 133 -184c0 -11 0 -23 -1 -35c48 12 87 42 109 88c7 15 14 18 20 18s10 -10 8 -19c-13 -64 -72 -107 -142 -122c-23 -130 -114 -268 -239 -275c-120 -6 -175 105 -169 208c7 118 82 232 153 254zM328 232
c-114 -5 -195 73 -199 152c-44 -44 -83 -131 -78 -235c3 -69 41 -130 100 -128c104 3 159 114 177 211zM213 378c0 -69 55 -109 120 -109c1 11 2 22 2 33c0 80 -32 148 -70 148c-32 0 -52 -45 -52 -72zM126 644c-10 9 -15 20 -15 32c0 25 20 52 43 52c6 0 11 -1 17 -5
c36 -21 64 -75 177 -107c11 -3 15 -9 15 -15c0 -8 -9 -16 -20 -17c-54 -3 -156 11 -217 60z" />
    <glyph glyph-name="oacute" unicode="&#xf3;" horiz-adv-x="463" 
d="M117 425c4 1 13 3 21 3c20 38 66 64 107 64c92 0 131 -100 133 -184c0 -11 0 -23 -1 -35c48 12 87 42 109 88c7 15 14 18 20 18s10 -10 8 -19c-13 -64 -72 -107 -142 -122c-23 -130 -114 -268 -239 -275c-120 -6 -175 105 -169 208c7 118 82 232 153 254zM328 232
c-114 -5 -195 73 -199 152c-44 -44 -83 -131 -78 -235c3 -69 41 -130 100 -128c104 3 159 114 177 211zM213 378c0 -69 55 -109 120 -109c1 11 2 22 2 33c0 80 -32 148 -70 148c-32 0 -52 -45 -52 -72zM125 590c-16 2 -21 9 -21 15c0 7 7 13 15 16c62 15 126 45 163 93
c8 10 17 14 27 14c24 0 49 -26 49 -51c0 -11 -4 -21 -15 -29c-56 -44 -176 -64 -218 -58z" />
    <glyph glyph-name="ocircumflex" unicode="&#xf4;" horiz-adv-x="463" 
d="M117 425c4 1 13 3 21 3c20 38 66 64 107 64c92 0 131 -100 133 -184c0 -11 0 -23 -1 -35c48 12 87 42 109 88c7 15 14 18 20 18s10 -10 8 -19c-13 -64 -72 -107 -142 -122c-23 -130 -114 -268 -239 -275c-120 -6 -175 105 -169 208c7 118 82 232 153 254zM328 232
c-114 -5 -195 73 -199 152c-44 -44 -83 -131 -78 -235c3 -69 41 -130 100 -128c104 3 159 114 177 211zM213 378c0 -69 55 -109 120 -109c1 11 2 22 2 33c0 80 -32 148 -70 148c-32 0 -52 -45 -52 -72zM79 562c-11 -2 -16 2 -16 8s6 15 17 20c28 11 93 65 131 116
c8 11 19 15 29 15c17 0 33 -12 38 -23c17 -38 69 -140 126 -156c7 -2 11 -7 11 -11c0 -6 -5 -10 -20 -7c-64 10 -136 74 -166 114c-27 -29 -111 -69 -150 -76z" />
    <glyph glyph-name="otilde" unicode="&#xf5;" horiz-adv-x="463" 
d="M117 425c4 1 13 3 21 3c20 38 66 64 107 64c92 0 131 -100 133 -184c0 -11 0 -23 -1 -35c48 12 87 42 109 88c7 15 14 18 20 18s10 -10 8 -19c-13 -64 -72 -107 -142 -122c-23 -130 -114 -268 -239 -275c-120 -6 -175 105 -169 208c7 118 82 232 153 254zM328 232
c-114 -5 -195 73 -199 152c-44 -44 -83 -131 -78 -235c3 -69 41 -130 100 -128c104 3 159 114 177 211zM213 378c0 -69 55 -109 120 -109c1 11 2 22 2 33c0 80 -32 148 -70 148c-32 0 -52 -45 -52 -72zM95 593c-7 -16 -14 -23 -21 -23s-12 9 -12 22c0 18 14 42 27 61
c22 31 53 58 85 58c8 0 15 -1 22 -4c32 -14 76 -70 110 -70c23 0 41 3 77 56c5 7 14 13 20 13c4 0 6 -2 6 -8c0 -3 -1 -7 -1 -11c-11 -36 -56 -120 -112 -120c-55 0 -100 68 -142 68c-20 0 -47 -10 -59 -42z" />
    <glyph glyph-name="odieresis" unicode="&#xf6;" horiz-adv-x="463" 
d="M117 425c4 1 13 3 21 3c20 38 66 64 107 64c92 0 131 -100 133 -184c0 -11 0 -23 -1 -35c48 12 87 42 109 88c7 15 14 18 20 18s10 -10 8 -19c-13 -64 -72 -107 -142 -122c-23 -130 -114 -268 -239 -275c-120 -6 -175 105 -169 208c7 118 82 232 153 254zM328 232
c-114 -5 -195 73 -199 152c-44 -44 -83 -131 -78 -235c3 -69 41 -130 100 -128c104 3 159 114 177 211zM213 378c0 -69 55 -109 120 -109c1 11 2 22 2 33c0 80 -32 148 -70 148c-32 0 -52 -45 -52 -72zM143 594c-22 0 -50 16 -50 45c0 27 31 59 63 59c28 0 49 -16 49 -50
c0 -29 -29 -53 -62 -54zM366 652c0 -22 -22 -54 -52 -54c-21 0 -51 18 -51 52c0 28 20 57 55 57c27 0 48 -24 48 -55z" />
    <glyph glyph-name="oslash" unicode="&#xf8;" horiz-adv-x="463" 
d="M117 425c4 1 13 3 21 3c20 38 66 64 107 64c22 0 42 -6 58 -17c13 21 25 38 35 50c7 8 14 12 20 12c15 0 26 -17 11 -35c-13 -17 -25 -35 -37 -53c31 -37 45 -92 46 -141c0 -11 0 -23 -1 -35c48 12 87 42 109 88c7 15 14 18 20 18s10 -10 8 -19
c-13 -64 -72 -107 -142 -122c-23 -130 -114 -275 -239 -275h-16c-11 -34 -20 -64 -24 -83c-4 -14 -15 -20 -26 -19c-10 0 -20 9 -19 24s10 47 23 87c-76 27 -112 115 -107 199c7 118 82 232 153 254zM96 40c29 79 66 169 96 232c-38 29 -61 70 -63 112
c-44 -44 -83 -131 -78 -235c2 -44 18 -86 45 -109zM328 232c-38 -2 -72 5 -101 19l-28 -63c-19 -42 -43 -106 -63 -167h15c104 3 159 114 177 211zM310 414c-22 -38 -42 -78 -61 -117c22 -19 52 -28 84 -28c1 11 2 22 2 33c0 44 -10 84 -25 112zM213 378c0 -17 3 -32 9 -45
c17 32 39 73 62 111c-6 3 -13 6 -19 6c-32 0 -52 -45 -52 -72z" />
    <glyph glyph-name="uacute" unicode="&#xfa;" 
d="M87 379c-13 -57 -21 -128 -21 -189c0 -75 11 -136 41 -136c56 0 129 135 196 317c13 35 35 47 52 47c27 0 41 -17 46 -70c13 -137 37 -258 80 -258c35 0 84 104 103 167c3 11 9 15 14 15c6 0 11 -7 9 -19c-14 -73 -71 -233 -167 -233c-93 1 -109 198 -117 302
c-40 -101 -138 -345 -240 -345c-34 0 -80 25 -95 105c-4 24 -7 64 -6 110c1 67 10 144 28 195c8 23 28 32 45 31c20 -1 37 -16 32 -39zM124 569c-16 2 -21 9 -21 15c0 7 7 13 15 16c62 15 126 45 163 93c8 10 17 14 27 14c24 0 49 -26 49 -51c0 -11 -4 -21 -15 -29
c-56 -44 -176 -64 -218 -58z" />
    <glyph glyph-name="ucircumflex" unicode="&#xfb;" 
d="M87 379c-13 -57 -21 -128 -21 -189c0 -75 11 -136 41 -136c56 0 129 135 196 317c13 35 35 47 52 47c27 0 41 -17 46 -70c13 -137 37 -258 80 -258c35 0 84 104 103 167c3 11 9 15 14 15c6 0 11 -7 9 -19c-14 -73 -71 -233 -167 -233c-93 1 -109 198 -117 302
c-40 -101 -138 -345 -240 -345c-34 0 -80 25 -95 105c-4 24 -7 64 -6 110c1 67 10 144 28 195c8 23 28 32 45 31c20 -1 37 -16 32 -39zM67 551c-11 -2 -16 2 -16 8s6 15 17 20c28 11 93 65 131 116c8 11 19 15 29 15c17 0 33 -12 38 -23c17 -38 69 -140 126 -156
c7 -2 11 -7 11 -11c0 -6 -5 -10 -20 -7c-64 10 -136 74 -166 114c-27 -29 -111 -69 -150 -76z" />
    <glyph glyph-name="udieresis" unicode="&#xfc;" 
d="M87 379c-13 -57 -21 -128 -21 -189c0 -75 11 -136 41 -136c56 0 129 135 196 317c13 35 35 47 52 47c27 0 41 -17 46 -70c13 -137 37 -258 80 -258c35 0 84 104 103 167c3 11 9 15 14 15c6 0 11 -7 9 -19c-14 -73 -71 -233 -167 -233c-93 1 -109 198 -117 302
c-40 -101 -138 -345 -240 -345c-34 0 -80 25 -95 105c-4 24 -7 64 -6 110c1 67 10 144 28 195c8 23 28 32 45 31c20 -1 37 -16 32 -39zM116 569c-22 0 -50 16 -50 45c0 27 31 59 63 59c28 0 49 -16 49 -50c0 -29 -29 -53 -62 -54zM357 637c0 -22 -22 -54 -52 -54
c-21 0 -51 18 -51 52c0 28 20 57 55 57c27 0 48 -24 48 -55z" />
    <glyph glyph-name="ugrave" unicode="&#xf9;" 
d="M87 379c-13 -57 -21 -128 -21 -189c0 -75 11 -136 41 -136c56 0 129 135 196 317c13 35 35 47 52 47c27 0 41 -17 46 -70c13 -137 37 -258 80 -258c35 0 84 104 103 167c3 11 9 15 14 15c6 0 11 -7 9 -19c-14 -73 -71 -233 -167 -233c-93 1 -109 198 -117 302
c-40 -101 -138 -345 -240 -345c-34 0 -80 25 -95 105c-4 24 -7 64 -6 110c1 67 10 144 28 195c8 23 28 32 45 31c20 -1 37 -16 32 -39zM113 619c-10 9 -15 20 -15 32c0 25 20 52 43 52c6 0 11 -1 17 -5c36 -21 64 -75 177 -107c11 -3 15 -9 15 -15c0 -8 -9 -16 -20 -17
c-54 -3 -156 11 -217 60z" />
    <glyph glyph-name="yacute" unicode="&#xfd;" 
d="M89 373c-9 -65 -30 -127 -22 -198c6 -48 19 -73 54 -73c59 0 175 230 214 326c11 27 31 34 46 34c25 0 46 -16 53 -56c13 -76 25 -167 29 -257c51 40 103 88 139 150c8 13 17 21 26 19c8 -2 11 -17 3 -32c-27 -51 -85 -113 -167 -181c1 -17 0 -34 0 -51
c-3 -142 5 -620 -271 -620c-109 -3 -168 112 -163 217c9 176 167 291 348 435c1 105 -12 212 -31 288c-28 -62 -141 -337 -260 -344c-66 -4 -100 71 -102 169c-1 60 10 134 25 187c7 23 23 40 53 34c21 -5 29 -22 26 -47zM190 -519c168 0 183 441 187 557
c-160 -117 -293 -265 -293 -408c0 -75 41 -149 106 -149zM124 581c-16 2 -21 9 -21 15c0 7 7 13 15 16c62 15 126 45 163 93c8 10 17 14 27 14c24 0 49 -26 49 -51c0 -11 -4 -21 -15 -29c-56 -44 -176 -64 -218 -58z" />
    <glyph glyph-name="ydieresis" unicode="&#xff;" 
d="M89 373c-9 -65 -30 -127 -22 -198c6 -48 19 -73 54 -73c59 0 175 230 214 326c11 27 31 34 46 34c25 0 46 -16 53 -56c13 -76 25 -167 29 -257c51 40 103 88 139 150c8 13 17 21 26 19c8 -2 11 -17 3 -32c-27 -51 -85 -113 -167 -181c1 -17 0 -34 0 -51
c-3 -142 5 -620 -271 -620c-109 -3 -168 112 -163 217c9 176 167 291 348 435c1 105 -12 212 -31 288c-28 -62 -141 -337 -260 -344c-66 -4 -100 71 -102 169c-1 60 10 134 25 187c7 23 23 40 53 34c21 -5 29 -22 26 -47zM190 -519c168 0 183 441 187 557
c-160 -117 -293 -265 -293 -408c0 -75 41 -149 106 -149zM133 574c-22 0 -50 16 -50 45c0 27 31 59 63 59c28 0 49 -16 49 -50c0 -29 -29 -53 -62 -54zM371 635c0 -22 -22 -54 -52 -54c-21 0 -51 18 -51 52c0 28 20 57 55 57c27 0 48 -24 48 -55z" />
    <glyph glyph-name="copyright" unicode="&#xa9;" horiz-adv-x="522" 
d="M353 709c-3 -21 -22 -32 -39 -30c-12 1 -23 7 -26 21c-4 17 12 25 12 34c0 19 -7 25 -22 25c-39 0 -58 -87 -58 -131c0 -30 5 -66 47 -66c24 0 66 30 91 70c3 6 6 9 8 9c5 0 7 -8 7 -12v-4c-21 -56 -73 -102 -124 -102c-45 0 -93 32 -93 95c0 91 67 163 134 163
c33 0 69 -29 63 -72zM110 791c16 11 39 7 48 -5c8 -10 17 -38 -7 -53c-13 -8 -27 -8 -39 -19c-21 -19 -34 -55 -34 -96c2 -100 61 -151 158 -151c110 0 214 110 214 221c-1 112 -86 157 -146 157c-26 0 -64 -7 -78 -36c-8 -16 -20 -26 -34 -26s-29 15 -26 31
c9 41 83 58 126 58c87 0 198 -63 197 -188c0 -129 -127 -250 -265 -250c-114 2 -202 87 -190 211c6 60 35 119 76 146z" />
  </font>
</defs>
</svg>
